<svg width="550" height="85" viewBox="0 0 550 85" fill="none" xmlns="http://www.w3.org/2000/svg">
<path d="M85.6856 84.5608C83.1577 84.2214 78.7257 83.4764 75.8367 82.9052C72.9477 82.334 68.5287 81.2634 66.0167 80.526C63.5048 79.7886 59.8891 78.4905 57.9819 77.6414C56.0747 76.7922 53.466 75.2926 52.1848 74.3088C50.9037 73.325 48.3777 70.7397 46.5717 68.5637C44.7656 66.3876 43.4324 64.4617 43.609 64.2839C43.7857 64.106 45.3995 65.0466 47.1954 66.3738C48.9913 67.701 52.6542 69.8071 55.335 71.0541C58.0158 72.3011 62.8195 74.0828 66.0099 75.0136C69.2002 75.9444 75.0021 77.2844 78.9027 77.9915C82.8032 78.6986 90.5504 79.6207 96.1186 80.0405C103.811 80.6206 108.33 80.6181 114.932 80.0305C119.711 79.6051 126.462 78.6818 129.933 77.9787C133.404 77.2756 138.607 75.9348 141.496 74.9992C144.385 74.0637 149.433 71.9728 152.714 70.353C155.994 68.7332 159.909 66.3473 161.413 65.0509C163.099 63.5983 164.14 62.143 164.125 61.2581C164.113 60.4684 163.68 59.0787 163.164 58.1698C162.648 57.2609 162.215 56.016 162.202 55.4035C162.19 54.7909 162.496 53.4524 162.884 52.4289L163.59 50.5681L164.909 52.3859C165.988 53.8726 166.733 54.2037 169.002 54.2037C170.528 54.2037 172.306 53.8142 172.952 53.3383C173.599 52.8623 174.911 50.8545 175.868 48.8764C177.255 46.0116 178.076 45.1194 179.907 44.491C181.171 44.057 184.273 43.6604 186.801 43.6096L191.397 43.5171L187.786 41.7978C185.8 40.8521 182.614 39.9469 180.706 39.7862L177.238 39.494L178.322 37.7598C178.918 36.806 179.871 35.6538 180.439 35.1994C181.006 34.7449 182.009 34.3731 182.666 34.3731C183.324 34.3731 185.582 35.5556 187.685 37.001C189.789 38.4464 193.421 40.5292 195.756 41.6296C198.092 42.73 201.538 43.9975 203.415 44.4463C205.292 44.8951 206.827 45.6016 206.827 46.0164C206.827 46.4312 206.407 47.1213 205.894 47.5501C205.174 48.1523 203.836 48.0956 200.013 47.3005C197.291 46.7345 193.007 46.2714 190.494 46.2714C187.98 46.2714 185.473 46.4456 184.922 46.6582C184.032 47.0021 184.04 47.2963 184.993 49.3086C185.792 50.9956 185.905 52.0334 185.437 53.3836C184.94 54.8153 184.328 55.2413 182.522 55.4151C181.264 55.536 179.163 55.3119 177.853 54.9168C175.564 54.2268 175.367 54.3025 172.841 56.8452C170.912 58.7873 169.674 59.4918 168.191 59.4918C166.365 59.4918 166.098 59.7643 165.435 62.3011C164.899 64.3513 163.661 66.1153 160.853 68.8293C158.256 71.3387 155.017 73.5277 150.892 75.5605C147.53 77.2174 142.353 79.3281 139.387 80.251C136.422 81.1739 131.103 82.5638 127.568 83.3396C122.259 84.5049 118.459 84.7874 105.712 84.9641C97.2253 85.0817 88.2136 84.9004 85.6858 84.5609L85.6856 84.5608ZM181.195 49.8794C180.319 48.9416 179.059 48.2846 178.341 48.3922C177.634 48.4981 176.943 48.927 176.807 49.3451C176.67 49.7632 177.386 50.409 178.397 50.7802C179.408 51.1514 180.804 51.4786 181.499 51.5073C182.659 51.5553 182.634 51.4226 181.195 49.8794ZM149.38 82.6205C149.546 82.3502 151.385 81.4483 153.468 80.6163C155.55 79.7843 159.249 78.1278 161.686 76.9352C164.124 75.7426 166.118 75.0167 166.118 75.3221C166.118 75.6275 165.299 76.7605 164.297 77.8399C163.155 79.0714 161.071 80.2139 158.702 80.9071C156.626 81.5146 153.611 82.2593 152.003 82.5618C150.394 82.8644 149.214 82.8908 149.38 82.6205V82.6205ZM283.977 76.7635C287.227 75.3774 291.142 73.5953 292.677 72.8033C294.212 72.0112 295.467 71.6352 295.467 71.9678C295.467 72.3003 294.655 73.445 293.662 74.5116C292.337 75.934 290.444 76.8335 286.559 77.8866C283.645 78.6762 280.543 79.3136 279.665 79.3029C278.698 79.2905 280.399 78.2894 283.977 76.7635ZM533.516 78.7644C533.859 78.4575 535.912 77.5155 538.079 76.6711C540.246 75.8267 543.748 74.2736 545.861 73.2197C547.974 72.1658 549.824 71.4263 549.973 71.5764C550.123 71.7265 549.627 72.6402 548.871 73.6069C548.116 74.5736 546.934 75.6686 546.244 76.0402C545.554 76.4119 542.696 77.2978 539.893 78.009C537.09 78.7201 534.368 79.3066 533.844 79.3121C533.272 79.3171 533.141 79.0995 533.516 78.7644ZM272.6 73.3724C272.718 73.0208 275.622 71.0134 279.053 68.9117C284.69 65.4585 285.27 64.919 285.083 63.3112C284.969 62.3326 285.443 60.2549 286.137 58.694C286.83 57.1332 288.037 55.2848 288.818 54.5866C290.225 53.3279 290.253 53.3317 292.032 55.0349C293.019 55.9798 295.303 57.4858 297.109 58.3815C298.915 59.2774 302.46 60.4701 304.988 61.0322C307.516 61.5943 312.687 62.5123 316.479 63.0722C320.27 63.6321 328.1 64.548 333.878 65.1075C339.656 65.667 352.767 66.4288 363.014 66.8003C375.802 67.2639 389.545 67.2595 406.842 66.7853C420.701 66.406 437.137 65.8002 443.366 65.439C449.595 65.0778 458.68 64.4682 463.556 64.0844C468.431 63.7005 476.261 62.9518 480.955 62.4206C485.65 61.8893 492.15 61.0039 495.4 60.4531C498.651 59.9022 503.23 58.976 505.578 58.3948C507.925 57.8136 510.942 56.7814 512.282 56.1009C513.621 55.4204 514.897 54.8637 515.116 54.8637C515.336 54.8637 515.336 55.4324 515.117 56.1275C514.801 57.1303 515.124 57.4809 516.682 57.8254C517.762 58.0643 519.987 58.057 521.628 57.8104C524.393 57.3929 524.666 57.1729 525.375 54.7905C525.796 53.3772 526.389 52.2208 526.693 52.2208C526.997 52.2208 527.245 53.076 527.245 54.1213C527.245 55.7209 527.57 56.0871 529.297 56.4348C530.426 56.6619 531.903 56.8479 532.58 56.8479C533.36 56.8479 533.811 56.3789 533.811 55.5689C533.811 54.8655 534.154 53.4526 534.573 52.4291L535.334 50.5683L535.723 52.522C536.05 54.1628 536.533 54.5642 538.737 55.0279C540.181 55.3316 542.027 55.4135 542.839 55.2098C543.652 55.0062 544.317 54.4569 544.317 53.9891C544.317 53.5214 543.255 50.4865 541.956 47.2449C539.91 42.1371 539.673 40.9961 540.176 38.6885L540.756 36.0258L543.464 42.9665C544.953 46.7839 546.23 50.6508 546.302 51.5597C546.373 52.4686 546.399 54.0137 546.359 54.9932C546.319 55.9727 545.596 57.582 544.753 58.5693C543.284 60.2884 543.093 60.3325 540.241 59.6096C538.603 59.1945 536.789 58.6715 536.209 58.4475C535.491 58.17 534.912 58.5759 534.394 59.7213C533.976 60.6458 533.304 61.5282 532.902 61.682C532.499 61.8359 530.592 61.5541 528.664 61.0558C525.393 60.2106 525.046 60.2386 523.487 61.4734C522.568 62.2014 521.19 62.7908 520.427 62.7833C519.663 62.7758 517.145 62.3704 514.832 61.8825C510.936 61.0611 510.231 61.1051 505.268 62.4797C502.321 63.2959 496.384 64.5856 492.074 65.3456C487.764 66.1058 478.92 67.3282 472.42 68.0623C465.919 68.7963 453.51 69.9055 444.843 70.5272C432.461 71.4152 419.798 71.6642 385.749 71.6891C355.433 71.7116 339.85 71.4688 333.878 70.8819C329.184 70.4205 323.126 69.7374 320.418 69.364C317.71 68.9906 313.13 68.2343 310.241 67.6834C307.352 67.1325 303.541 66.2153 301.772 65.6453C298.62 64.6294 298.534 64.6387 297.432 66.1091L296.308 67.6094L291.571 66.5326L286.835 65.4557L285.246 67.3567C284.372 68.4023 282.252 69.9243 280.534 70.739C278.816 71.5537 276.28 72.6234 274.898 73.1161C273.516 73.6088 272.481 73.7243 272.6 73.3726L272.6 73.3724ZM291.595 59.4592C289.91 57.6019 289.477 57.4148 288.586 58.1594C288.013 58.6377 287.646 59.3344 287.769 59.7074C287.893 60.0805 289.158 60.7287 290.582 61.1479C292.005 61.5671 293.258 61.8468 293.367 61.7695C293.475 61.6923 292.678 60.6525 291.595 59.4592ZM196.084 71.0905C194.689 70.5856 192.668 69.3311 191.593 68.3025C190.518 67.274 189.185 65.5574 188.63 64.488C188.076 63.4186 187.384 61.7082 187.093 60.6871C186.802 59.6661 186.816 58.8307 187.124 58.8307C187.432 58.8307 188.026 59.8721 188.443 61.1449C188.86 62.4177 190.119 64.383 191.241 65.5122C193.146 67.4299 193.532 67.5469 197.103 67.2869C199.985 67.0771 201.594 66.5316 203.649 65.068C205.148 64.0006 207.28 61.9954 208.386 60.612C209.963 58.6415 210.206 57.977 209.511 57.5445C208.885 57.1545 208.755 56.2919 209.069 54.6065C209.508 52.2472 209.549 52.2205 212.766 52.2205C215.703 52.2205 216.019 52.0759 216.018 50.7332C216.016 49.9152 214.97 44.1891 213.692 38.0086C212.413 31.8281 210.778 23.5355 210.059 19.5807C208.977 13.6321 208.886 11.9781 209.533 10.0054C210.257 7.79583 210.36 7.72372 210.936 9.02285C211.277 9.79396 212.276 10.8122 213.155 11.2857C214.195 11.8459 214.614 12.507 214.357 13.1792C214.139 13.7472 213.648 15.4017 213.266 16.856C212.733 18.8859 212.812 20.7283 213.604 24.7882C214.172 27.6967 215.388 33.6459 216.307 38.0086C217.227 42.3713 217.981 47.2146 217.984 48.7714C217.987 50.3282 217.562 52.6328 217.039 53.8928C216.516 55.1528 215.325 56.5337 214.392 56.9614C213.378 57.4266 212.169 58.9401 211.384 60.7273C210.662 62.3709 209.333 64.6901 208.43 65.8812C207.528 67.0723 205.838 68.7665 204.674 69.646C203.511 70.5256 201.673 71.417 200.59 71.6268C199.506 71.8367 197.479 71.5954 196.084 71.0905ZM110.081 70.4259C108.693 69.9275 106.807 68.8251 105.891 67.9761C104.974 67.1271 103.528 64.9451 102.677 63.1273C101.825 61.3095 101.143 59.2273 101.16 58.5002C101.177 57.7222 101.814 58.5574 102.706 60.5299C103.539 62.3734 105.039 64.53 106.039 65.3223C107.283 66.3073 108.774 66.7629 110.751 66.7629C112.342 66.7629 114.739 66.1926 116.079 65.4955C117.419 64.7983 119.838 62.8589 121.455 61.1855C123.989 58.5643 124.289 57.9709 123.624 56.8997C123.092 56.0414 123.042 54.969 123.462 53.4369C124.053 51.2833 124.159 51.2245 127.038 51.455L130.006 51.6926V49.3767C130.006 48.103 128.678 40.6318 127.055 32.7741C125.432 24.9164 123.938 16.4842 123.736 14.036C123.534 11.5878 123.633 9.19792 123.956 8.72511C124.407 8.06473 125.044 8.33603 126.702 9.8956L128.861 11.9257L127.739 14.883C127.122 16.5096 126.777 18.66 126.973 19.6617C127.169 20.6635 128.398 26.5399 129.703 32.7204C131.502 41.2363 132.022 45.1082 131.851 48.7083C131.665 52.6323 131.351 53.7537 130.045 55.1532C129.175 56.0851 128.112 56.8476 127.683 56.8476C127.253 56.8476 126.397 58.1778 125.78 59.8036C125.163 61.4295 123.285 64.2981 121.605 66.1783C119.926 68.0586 117.593 70.0005 116.421 70.4935C115.249 70.9866 113.911 71.377 113.448 71.361C112.985 71.346 111.47 70.9242 110.082 70.4258L110.081 70.4259ZM542.493 69.7001C541.691 69.1341 541.044 68.3161 541.056 67.8822C541.068 67.4484 541.645 66.4083 542.338 65.5708C543.547 64.1116 543.669 64.0941 545.271 65.1511C546.191 65.7577 546.943 66.5277 546.943 66.8622C546.943 67.1968 546.466 68.2037 545.883 69.0998C545.3 69.9959 544.627 70.729 544.387 70.729C544.148 70.729 543.296 70.266 542.493 69.7001ZM231.778 69.2446C232.681 68.841 236.596 67.1095 240.478 65.397C244.36 63.6844 247.536 62.5704 247.536 62.9214C247.536 63.2724 246.724 64.3768 245.73 65.3757C244.494 66.6195 242.256 67.6449 238.627 68.6299C235.714 69.4209 232.611 70.0479 231.733 70.0233L230.136 69.9786L231.778 69.2446ZM3.28302 68.9205C3.28302 68.639 5.12963 67.7037 7.38669 66.842C9.64372 65.9803 13.3371 64.3058 15.5942 63.1208C17.8512 61.9358 19.6978 61.0667 19.6978 61.1894C19.6978 61.3121 19.3773 62.1211 18.9853 62.987C18.5934 63.8529 17.4854 65.0113 16.5231 65.5612C15.5608 66.1111 13.0006 67.0243 10.8339 67.5905C8.66712 68.1567 6.08177 68.8027 5.08865 69.0261C4.09555 69.2494 3.28302 69.202 3.28302 68.9204V68.9205ZM62.435 67.1562C61.0093 65.6284 60.9951 65.4993 62.0678 63.851C62.6818 62.9077 63.5476 62.1358 63.9918 62.1358C64.4359 62.1358 65.3561 62.755 66.0364 63.5119L67.2733 64.8879L68.6926 63.0959L70.112 61.304L71.8047 62.5462C72.7356 63.2294 73.4968 64.0858 73.4961 64.4494C73.4954 64.8129 72.9402 65.7797 72.2624 66.5977C71.5846 67.4157 70.801 68.085 70.521 68.085C70.241 68.085 69.3533 67.4619 68.5481 66.7005L67.0842 65.316L65.9681 67.031C65.3542 67.9743 64.6419 68.746 64.3853 68.746C64.1286 68.746 63.2509 68.0306 62.435 67.1562ZM79.5226 66.4675C79.6839 66.3051 83.0268 64.8177 86.9512 63.1625C90.8756 61.5073 94.4934 59.813 94.9906 59.3976C95.4878 58.9822 96.0746 58.8235 96.2946 59.045C96.5145 59.2666 95.6949 60.4488 94.473 61.6725C92.7801 63.368 90.9912 64.2382 86.9541 65.3301C84.0405 66.1182 81.1105 66.7629 80.4429 66.7629C79.7754 66.7629 79.3612 66.63 79.5226 66.4675ZM0 63.9545C0 63.7854 3.05612 61.7912 6.79128 59.5231C12.7451 55.9079 13.5463 55.2089 13.289 53.854C13.1277 53.0041 13.7503 50.6491 14.6726 48.6208C15.595 46.5925 16.7759 44.7684 17.2968 44.5671C17.823 44.3638 19.807 45.4004 21.7614 46.8996C23.9356 48.5675 27.2015 50.2143 30.3132 51.2117C33.082 52.0992 38.5481 53.1593 42.4601 53.5673C46.4222 53.9805 52.336 54.1147 55.8106 53.8703C59.2413 53.6289 65.0029 52.8652 68.6142 52.1733C72.2785 51.4712 76.8726 50.073 79.0099 49.0094C82.3108 47.3667 82.7971 47.2675 82.5313 48.2908C82.3132 49.1307 82.7834 49.7117 84.1391 50.2771C85.2963 50.7596 87.6729 50.9437 90.1384 50.7419C92.3841 50.558 96.0761 49.8817 98.343 49.2389C100.61 48.5961 102.335 47.9401 102.178 47.7811C102.02 47.6222 99.7217 46.9252 97.071 46.2321C94.4203 45.539 90.4049 44.9669 88.1478 44.9606C85.8908 44.9556 84.0442 44.71 84.0442 44.4175C84.0442 44.1249 85.0761 42.7513 86.3375 41.3649C88.08 39.4498 88.987 38.9298 90.113 39.2004C90.9281 39.3963 94.1064 40.6004 97.176 41.8761C100.246 43.1517 105.034 44.6625 107.818 45.2334C110.601 45.8043 114.221 46.2713 115.861 46.2713C118.268 46.2713 118.842 46.4947 118.834 47.4281C118.829 48.0644 118.607 48.9166 118.341 49.322C118.068 49.739 115.007 50.2133 111.293 50.414C106.195 50.6896 103.113 51.3006 97.5093 53.1473C93.5397 54.4554 89.0774 55.5256 87.5933 55.5256C85.8654 55.5256 84.0925 54.9801 82.6639 54.0089L80.4329 52.4922L76.8215 54.3604C74.8353 55.388 70.5166 56.7829 67.2242 57.4601C63.9318 58.1374 58.1702 58.8991 54.4206 59.1529C50.4431 59.422 44.9181 59.31 41.1575 58.8841C37.6125 58.4826 32.903 57.5405 30.6918 56.7906L26.6715 55.4272L25.647 56.7829C24.6671 58.0794 24.4503 58.0979 20.6828 57.2071C18.516 56.6948 16.2787 56.0954 15.7111 55.8751C15.0221 55.6077 14.4326 56.019 13.9379 57.1121C13.4529 58.1837 11.5404 59.5479 8.40408 61.0592C5.76806 62.3296 2.79872 63.5699 1.80562 63.8155C0.812531 64.0611 0 64.1237 0 63.9544V63.9545ZM19.7121 49.9217C18.016 48.16 17.2957 47.7928 16.6287 48.3501C16.15 48.7501 15.7584 49.444 15.7584 49.8923C15.7584 50.3405 16.7186 51.0173 17.8922 51.3964C19.0659 51.7754 20.4535 52.1159 20.9757 52.153C21.5257 52.192 20.9931 51.2531 19.7121 49.9217ZM253.272 59.3265C252.678 58.872 251.873 57.6382 251.485 56.5845C250.827 54.8027 250.717 54.7523 249.911 55.8624C249.161 56.8946 248.4 57.0014 244.273 56.6531C241.649 56.4315 239.322 56.0694 239.102 55.8482C238.882 55.6268 239.434 54.0767 240.329 52.4031C241.823 49.6082 242.315 49.2446 246.375 47.9386C248.805 47.1566 250.894 46.3872 251.016 46.2288C251.139 46.0704 251.659 44.6023 252.172 42.9662L253.105 39.9917L253.439 46.339C253.659 50.5082 254.103 53.0841 254.733 53.8457C255.473 54.7399 256.353 54.9301 258.582 54.6772C260.245 54.4886 262.031 53.7859 262.79 53.0218C264.089 51.7143 264.092 51.5763 263.01 43.8599C262.238 38.3601 262.09 35.2376 262.512 33.3815C262.868 31.8126 263.26 31.1406 263.474 31.7289C263.672 32.2743 264.324 36.098 264.921 40.2261C265.519 44.3541 266.481 48.7316 267.06 49.9538C267.651 51.2019 269.043 52.6204 270.235 53.1898C271.402 53.7474 272.755 54.199 273.242 54.1935C273.73 54.1885 274.496 53.9479 274.947 53.6601C275.57 53.2617 275.139 51.2602 273.141 45.2732C271.698 40.9482 270.521 36.2057 270.527 34.7345C270.532 33.2632 270.803 31.6365 271.128 31.1196C271.561 30.4304 271.918 30.9592 272.467 33.1026C272.878 34.7103 274.085 38.7034 275.149 41.9763C276.212 45.2493 277.083 49.3541 277.083 51.0982C277.083 52.8423 276.625 55.1596 276.066 56.2479C275.507 57.3361 274.283 58.5201 273.345 58.8789C272.189 59.3216 270.935 59.2969 269.446 58.8022C268.237 58.4006 266.757 57.2311 266.152 56.1989L265.052 54.3248L263.661 56.4029C262.896 57.5459 261.54 58.8528 260.648 59.3071C259.756 59.7615 257.975 60.1377 256.69 60.1431C255.404 60.1481 253.867 59.781 253.272 59.3265L253.272 59.3265ZM251.045 50.1011C251.253 49.2989 251.339 48.5572 251.235 48.4528C251.131 48.3483 249.592 48.989 247.814 49.8764L244.581 51.4899L247.624 51.5246C250.223 51.5543 250.721 51.3472 251.045 50.101L251.045 50.1011ZM144.87 53.8744C144.64 53.2689 144.451 51.7976 144.451 50.6048C144.451 49.4121 143.702 44.7514 142.787 40.2478C141.872 35.7442 140.532 28.4124 139.808 23.9549C138.71 17.1885 138.624 15.4111 139.285 13.1898C139.82 11.3894 140.25 10.804 140.612 11.379C140.907 11.8464 141.154 13.1212 141.161 14.2119C141.168 15.3026 142.355 22.6809 143.797 30.6082C145.24 38.5355 146.416 46.8643 146.411 49.1167C146.406 51.3692 146.151 53.6088 145.845 54.0937C145.402 54.7971 145.205 54.7527 144.87 53.8744V53.8744ZM230.465 52.5984C230.465 51.3521 229.288 44.1807 227.849 36.662C226.411 29.1433 225.054 21.1649 224.834 18.9323C224.574 16.3014 224.723 14.1751 225.256 12.8899L226.078 10.9068L226.676 14.2119C227.004 16.0297 228.281 23.1687 229.514 30.0764C230.746 36.984 231.945 44.3204 232.178 46.3794C232.411 48.4385 232.403 51.19 232.161 52.4939C231.918 53.7978 231.437 54.8646 231.092 54.8646C230.747 54.8646 230.465 53.8448 230.465 52.5984H230.465ZM288.595 45.8872C288.363 44.0989 287.306 38.1738 286.246 32.7204C285.186 27.267 284.044 20.8094 283.708 18.3701C283.295 15.3661 283.329 13.1798 283.812 11.5946C284.205 10.3074 284.772 9.25427 285.072 9.25427C285.373 9.25427 285.619 10.2565 285.619 11.4814C285.619 12.7063 286.653 19.3104 287.917 26.1571C289.181 33.0039 290.21 40.5536 290.205 42.9343C290.2 45.315 289.929 47.6849 289.605 48.2008C289.191 48.8599 288.89 48.1721 288.595 45.8872ZM155.026 43.0422C153.987 42.2379 153.631 41.5149 153.977 40.9086C154.264 40.4043 154.937 39.4788 155.471 38.8519C156.387 37.7772 156.551 37.7896 158.334 39.0682L160.226 40.4244L158.86 42.3563C158.108 43.4189 157.292 44.2816 157.046 44.2736C156.799 44.2661 155.891 43.7114 155.026 43.0422V43.0422ZM167.203 39.3133C166.981 37.6845 166.203 35.1748 165.474 33.7362C164.745 32.2976 164.149 30.2163 164.149 29.1112C164.149 28.006 164.438 27.1018 164.792 27.1018C165.146 27.1018 166.076 28.366 166.86 29.9111C167.72 31.6058 168.409 34.455 168.597 37.0924C168.777 39.6272 168.635 41.6346 168.257 41.8696C167.882 42.1032 167.435 41.0202 167.203 39.3133ZM521.336 37.9555C521.336 37.7259 522.123 36.9146 523.085 36.1529L524.834 34.768L522.921 34.2505C521.869 33.9658 520.5 33.894 519.88 34.0908C518.89 34.4047 518.835 34.2068 519.433 32.4808C519.808 31.3985 520.528 30.3533 521.033 30.1581C521.538 29.963 523.438 29.9805 525.255 30.1971C527.072 30.4137 528.559 30.778 528.559 31.0065C528.559 31.2351 527.811 32.5289 526.898 33.8818C525.985 35.2347 524.36 36.7987 523.287 37.3573C522.214 37.916 521.336 38.1851 521.336 37.9554V37.9555ZM110.089 35.2544C109.848 35.012 109.651 34.4739 109.651 34.0587C109.651 33.6434 110.103 32.7262 110.654 32.0205C111.624 30.7795 111.651 30.7785 111.475 31.9908C111.375 32.6802 111.653 33.3713 112.094 33.5266C112.534 33.682 113.494 32.8203 114.225 31.6121C115.101 30.1661 115.557 29.8106 115.558 30.5721C115.559 31.2083 115.959 31.7289 116.445 31.7289C116.932 31.7289 117.65 31.0596 118.042 30.2415L118.755 28.7543L118.799 30.285C118.824 31.1269 118.538 32.3911 118.164 33.0944C117.781 33.8145 116.794 34.3729 115.905 34.3729C115.036 34.3729 114.142 34.6704 113.919 35.0339C113.696 35.3975 112.841 35.695 112.02 35.695C111.199 35.695 110.33 35.4966 110.089 35.2543V35.2544ZM197.215 32.719C197.007 32.1728 197.07 30.9086 197.354 29.9096C197.841 28.2014 197.887 28.1818 198.127 29.5806C198.268 30.3986 198.812 31.0679 199.336 31.0679C199.86 31.0679 200.624 30.3295 201.032 29.4269C201.718 27.9121 201.839 27.874 202.615 28.9312C203.172 29.689 203.671 29.8528 204.093 29.4153C204.443 29.0518 204.872 28.1594 205.046 27.4323C205.26 26.5362 205.386 26.7694 205.438 28.1561C205.484 29.3876 205.029 30.6438 204.296 31.3119C203.626 31.9224 202.639 32.2524 202.103 32.0453C201.567 31.8382 200.749 32.1285 200.286 32.6904C199.823 33.2522 199.028 33.712 198.519 33.712C198.01 33.712 197.423 33.2651 197.215 32.719ZM107.353 27.7628C107.576 27.3992 108.067 27.1018 108.444 27.1018C108.821 27.1018 111.611 25.9312 114.643 24.5006C117.676 23.0699 120.157 22.1446 120.157 22.4443C120.157 22.744 119.64 23.6064 119.008 24.3607C118.33 25.1692 115.843 26.2847 112.947 27.078C110.246 27.8182 107.791 28.4238 107.492 28.4238C107.192 28.4238 107.13 28.1264 107.353 27.7628H107.353ZM182.041 26.3647C183.034 25.6188 183.847 24.6971 183.847 24.3166C183.847 23.8901 182.74 23.7503 180.961 23.9522L178.075 24.2797L178.932 22.2204C179.743 20.2732 180.007 20.1504 183.788 19.9643C186.532 19.8292 187.786 20.0121 187.786 20.5473C187.786 20.9762 187.171 22.3291 186.419 23.5539C185.667 24.7787 184.419 26.2267 183.646 26.7718C182.873 27.3168 181.79 27.7534 181.238 27.7419C180.587 27.7284 180.869 27.245 182.041 26.3647ZM148.39 26.4915C148.39 26.1558 149.134 24.9919 150.042 23.905C151.151 22.5785 154.107 20.9033 159.036 18.809C163.074 17.093 169.274 14.7071 172.814 13.5069C176.354 12.3068 179.25 11.5696 179.25 11.8689C179.25 12.1681 178.733 13.0263 178.101 13.776C177.469 14.5256 172.809 16.7519 167.744 18.7233C162.68 20.6946 156.408 23.3863 153.808 24.7047C151.207 26.0231 148.925 27.1018 148.735 27.1018C148.545 27.1018 148.39 26.8272 148.39 26.4915ZM256.377 26.4032C256.141 26.019 256.129 24.9779 256.351 24.0896C256.572 23.2014 257.034 22.4746 257.377 22.4746C257.72 22.4746 257.83 22.9208 257.622 23.4662C257.359 24.1564 257.67 24.4577 258.644 24.4577C259.553 24.4577 260.305 23.8203 260.787 22.6399C261.375 21.2042 261.589 21.0653 261.804 21.9789C261.954 22.6151 262.474 23.1357 262.959 23.1357C263.445 23.1357 264.138 22.3177 264.501 21.3179L265.16 19.5001L265.212 21.5459C265.244 22.7913 264.76 24.0512 263.975 24.7659C263.267 25.4117 262.254 25.773 261.725 25.5687C261.197 25.3644 260.411 25.6258 259.979 26.1495C259.547 26.6733 258.657 27.1018 258 27.1018C257.343 27.1018 256.613 26.7874 256.377 26.4032ZM198.62 23.521C201.509 22.2325 204.418 20.8545 205.086 20.4586C205.753 20.0628 206.438 19.8793 206.608 20.0509C206.779 20.2225 206.532 20.9866 206.059 21.7489C205.586 22.5112 203.866 23.5729 202.238 24.1082C200.609 24.6435 197.947 25.2574 196.322 25.4726C193.515 25.844 193.631 25.746 198.62 23.521ZM250.163 16.5763C250.163 16.3309 251.271 15.7333 252.625 15.2483C253.979 14.7634 257.82 13.0879 261.16 11.525C264.501 9.96218 267.234 8.98353 267.234 9.35024C267.234 9.71695 266.394 10.8624 265.368 11.8956C264.342 12.9288 262.199 14.1379 260.608 14.5823C259.016 15.0268 256.014 15.7577 253.938 16.2065C251.861 16.6554 250.163 16.8218 250.163 16.5763ZM134.728 7.82344C134.005 6.67293 133.567 5.32678 133.756 4.83199C134.023 4.13019 134.305 4.10461 135.036 4.71564C135.791 5.34673 136.452 5.02891 138.434 3.07996C139.788 1.74954 141.235 0.661008 141.651 0.661008C142.066 0.661008 142.845 1.29051 143.38 2.0599C144.113 3.11421 144.186 3.82897 143.673 4.9616C143.299 5.78814 142.273 6.79466 141.393 7.19831C140.513 7.60196 138.93 7.93222 137.875 7.93222C136.439 7.93222 136.051 8.18183 136.334 8.92375C136.542 9.46909 136.562 9.91528 136.378 9.91528C136.195 9.91528 135.452 8.97395 134.729 7.82344L134.728 7.82344ZM141.442 4.88692C142.014 4.66624 142.481 4.22006 142.481 3.89539C142.481 3.57073 141.926 3.30509 141.248 3.30509C140.57 3.30509 139.648 3.75128 139.198 4.29662C138.532 5.10501 138.568 5.28815 139.392 5.28815C139.949 5.28815 140.871 5.1076 141.442 4.88692ZM220.452 8.04367C219.82 6.96129 219.303 5.74411 219.303 5.33882C219.303 4.90324 219.911 4.75562 220.79 4.9778C221.886 5.25473 222.782 4.82312 224.196 3.33784C225.251 2.22915 226.591 1.32204 227.173 1.32204C227.756 1.32204 228.587 1.67899 229.02 2.11526C229.454 2.55153 229.808 3.44391 229.808 4.09832C229.808 4.75273 229.217 5.88307 228.495 6.61019C227.628 7.48332 226.306 7.93223 224.603 7.93223C222.786 7.93223 221.963 8.23915 221.813 8.97193C221.662 9.70938 221.267 9.43952 220.452 8.04367ZM228.112 4.60203C228.474 4.24604 228.256 3.83217 227.565 3.56543C226.812 3.27453 225.925 3.63668 224.993 4.61553L223.57 6.10966L225.54 5.65213C226.624 5.40049 227.781 4.92794 228.112 4.60203ZM278.888 7.20714C278.257 6.09277 277.739 4.75326 277.739 4.23046C277.739 3.57286 278.198 3.39574 279.227 3.65576C280.323 3.93269 281.219 3.50108 282.633 2.0158C283.688 0.90711 285.051 0 285.661 0C286.271 0 287.136 0.442323 287.581 0.982944C288.042 1.54158 288.215 2.67472 287.982 3.60794C287.757 4.51107 287.014 5.55097 286.332 5.91883C285.649 6.28669 284.101 6.6671 282.892 6.76418C281.473 6.87818 280.578 7.34667 280.366 8.08698C280.1 9.01619 279.82 8.84957 278.888 7.20714ZM285.913 3.74191C287.076 2.88601 287.076 2.84138 285.918 2.39413C285.129 2.08916 284.265 2.39063 283.382 3.27935L282.044 4.62713H283.377C284.111 4.62713 285.252 4.22879 285.913 3.74191H285.913Z" fill="white"/>
</svg>
