<svg width="875" height="746" viewBox="0 0 875 746" fill="none" xmlns="http://www.w3.org/2000/svg">
<path d="M436.616 0L403.03 21.1961C394.191 28.2628 159.09 183.712 42.4268 386.855C15.9095 436.316 0 492.842 0 549.369V745.444H123.739V549.369C123.739 514.04 132.578 478.71 150.249 446.913C226.265 312.663 371.209 196.077 436.616 148.382C480.81 180.179 556.821 240.238 627.525 316.195C574.496 349.17 527.945 388.032 487.877 432.782C413.632 515.805 374.751 625.328 374.751 740.148V745.444H496.718V740.148C496.718 655.358 526.769 575.865 579.796 514.038C615.152 475.176 656.398 441.614 703.535 413.351C711.783 425.127 718.853 436.904 724.745 448.681C742.423 478.711 751.262 514.04 751.262 549.369V745.444H875V549.369L874.944 549.371C874.944 492.845 859.028 436.316 832.517 386.855C827.801 378.612 822.497 370.368 816.605 362.125C791.859 321.496 760.045 280.867 728.223 245.537C717.621 233.172 708.781 224.342 698.172 213.743C697.014 212.564 696.435 211.386 696.435 210.207C687.007 200.787 678.168 191.956 669.919 183.712C649.885 164.87 630.439 147.206 611.586 130.718C606.869 126.009 602.154 121.886 597.441 118.352C586.837 108.931 575.642 100.1 563.856 91.8565C554.427 83.6126 545.001 75.9586 535.576 68.8931C514.364 51.2277 496.686 38.8615 484.312 31.7954C480.781 28.2629 477.836 25.9092 475.475 24.731C473.114 23.5533 471.356 22.3738 470.197 21.1961L436.616 0Z" fill="url(#paint0_linear_4_10)"/>
<defs>
<linearGradient id="paint0_linear_4_10" x1="437.501" y1="-0.00112697" x2="437.501" y2="745.446" gradientUnits="userSpaceOnUse">
<stop stop-color="#50C3B1" stop-opacity="0.25"/>
<stop offset="1" stop-color="#50C3B1" stop-opacity="0"/>
</linearGradient>
</defs>
</svg>
