<svg width="225" height="99" viewBox="0 0 225 99" fill="none" xmlns="http://www.w3.org/2000/svg">
<path d="M4.0216 39.0624C4.20174 39.1981 4.40294 39.301 4.62987 39.3736C4.85446 39.4461 5.0884 39.4812 5.33171 39.4812C5.56566 39.4812 5.79493 39.4461 6.01952 39.3736C6.25347 39.301 6.45934 39.1981 6.63948 39.0624C6.81962 38.9174 6.96701 38.7442 7.08399 38.536C7.1916 38.3301 7.24541 38.0915 7.24541 37.8201C7.24541 37.5417 7.1916 37.2984 7.08399 37.0926C6.96701 36.8867 6.81962 36.7159 6.63948 36.5802C6.45934 36.4445 6.25347 36.3416 6.01952 36.2691C5.79493 36.1965 5.56566 36.1614 5.33171 36.1614C5.0884 36.1614 4.85446 36.1965 4.62987 36.2691C4.40527 36.3416 4.20174 36.4445 4.0216 36.5802C3.85082 36.7159 3.70577 36.8867 3.58879 37.0926C3.48118 37.2984 3.42737 37.5417 3.42737 37.8201C3.42737 38.0892 3.48118 38.3278 3.58879 38.536C3.70577 38.7419 3.85082 38.9174 4.0216 39.0624Z" fill="white"/>
<path d="M8.635 39.0624C8.80578 39.1981 9.00464 39.301 9.22923 39.3736C9.45382 39.4461 9.68777 39.4812 9.93108 39.4812C10.165 39.4812 10.399 39.4461 10.6329 39.3736C10.8575 39.301 11.0657 39.1981 11.2529 39.0624C11.433 38.9174 11.5757 38.7442 11.6834 38.536C11.791 38.3301 11.8448 38.0915 11.8448 37.8201C11.8448 37.5417 11.791 37.2984 11.6834 37.0926C11.5757 36.8867 11.4307 36.7159 11.2529 36.5802C11.0634 36.4445 10.8575 36.3416 10.6329 36.2691C10.399 36.1965 10.165 36.1614 9.93108 36.1614C9.68777 36.1614 9.45382 36.1965 9.22923 36.2691C9.00464 36.3416 8.80578 36.4445 8.635 36.5802C8.45486 36.7159 8.31215 36.8867 8.2022 37.0926C8.09458 37.2984 8.04077 37.5417 8.04077 37.8201C8.04077 38.0892 8.09458 38.3278 8.2022 38.536C8.31215 38.7419 8.45486 38.9174 8.635 39.0624Z" fill="white"/>
<path d="M47.7278 43.0302C47.0611 42.4102 46.2563 41.9423 45.3112 41.6265C44.3754 41.3036 43.346 41.1399 42.2207 41.1399C41.0954 41.1399 40.066 41.3013 39.1302 41.6265C38.1944 41.9587 37.385 42.4313 36.7019 43.0442C36.0281 43.6642 35.5064 44.4198 35.1367 45.3112C34.7601 46.2025 34.5706 47.2085 34.5706 48.3338V49.3468C34.5706 50.2919 34.3413 51.0078 33.8828 51.4921C33.4242 51.9881 32.7902 52.2337 31.9808 52.2337L25.5168 52.2197C24.9506 52.2197 24.4336 52.1261 23.9657 51.9366C23.5072 51.7471 23.1165 51.4827 22.7913 51.1412C22.4684 50.7996 22.2158 50.3902 22.0356 49.9129C21.8648 49.4357 21.7783 48.9093 21.7783 48.3338C21.7783 47.7396 21.8625 47.2061 22.0356 46.7289C22.2158 46.2516 22.4684 45.8469 22.7913 45.5147C23.1141 45.1825 23.5072 44.9205 23.9657 44.731C24.4336 44.5508 24.9506 44.4619 25.5168 44.4619V46.9979H29.3886V41.9493C29.136 41.8323 28.8763 41.7247 28.6049 41.6265C27.6691 41.3036 26.6397 41.1399 25.5144 41.1399C24.3821 41.1399 23.3457 41.2966 22.4099 41.6124C21.4741 41.9353 20.674 42.4079 20.0073 43.0302C19.3335 43.6408 18.8118 44.3941 18.4422 45.2831C18.0655 46.1744 17.876 47.1898 17.876 48.3314C17.876 49.4825 18.0655 50.5095 18.4422 51.4079C18.5591 51.6956 18.6925 51.9647 18.8469 52.2173H17.876V52.2314C17.0572 52.2314 16.4185 51.9834 15.96 51.4898C15.5014 50.9961 15.2722 50.2755 15.2722 49.3304V41.1399H7.63608C6.51079 41.1399 5.48609 41.3013 4.55966 41.6265C3.61451 41.9587 2.80504 42.4313 2.13127 43.0442C1.4575 43.6642 0.935795 44.4198 0.566156 45.3112C0.189499 46.2025 0 47.2085 0 48.3338C0 49.4848 0.189499 50.5118 0.566156 51.4102C0.935795 52.3109 1.4575 53.0666 2.13127 53.6772C2.80738 54.2808 3.61451 54.744 4.55966 55.0668C5.49545 55.392 6.52483 55.5534 7.65012 55.5534C8.77541 55.5534 9.80946 55.392 10.7546 55.0668C11.646 54.7603 12.4156 54.3252 13.0613 53.7591L13.0754 53.7731C13.6228 54.3322 14.3083 54.7674 15.1271 55.0832C15.9108 55.3897 16.8139 55.5464 17.8386 55.5558H17.8783H31.9784C33.0218 55.5464 33.9389 55.3897 34.732 55.0832C35.5415 54.7674 36.2246 54.3322 36.7837 53.7731L36.7978 53.7591C37.4552 54.3252 38.2319 54.7627 39.1326 55.0668C40.0684 55.392 41.0977 55.5534 42.223 55.5534C43.3483 55.5534 44.3777 55.392 45.3135 55.0668C46.2586 54.744 47.0634 54.2808 47.7302 53.6772C48.3969 53.0666 48.9186 52.3109 49.2953 51.4102C49.6649 50.5095 49.8474 49.4848 49.8474 48.3338C49.8474 47.2015 49.6626 46.1838 49.2953 45.2854C48.914 44.3917 48.3923 43.6408 47.7278 43.0302ZM11.3886 48.3314C11.3886 48.907 11.2997 49.4333 11.1196 49.9106C10.9394 50.3972 10.6915 50.8066 10.378 51.1388C10.0551 51.4804 9.6574 51.7471 9.1895 51.9342C8.73096 52.1331 8.21861 52.2314 7.65246 52.2314C7.10268 52.2314 6.59969 52.1331 6.14115 51.9342C5.68261 51.7447 5.28724 51.4804 4.95269 51.1388C4.62048 50.8066 4.35846 50.3972 4.1713 49.9106C3.99116 49.4333 3.90226 48.907 3.90226 48.3314C3.90226 47.7653 3.99116 47.2483 4.1713 46.7804C4.3608 46.3125 4.6158 45.9031 4.94099 45.5521C5.26618 45.2012 5.66155 44.9322 6.12711 44.7427C6.58565 44.5532 7.09098 44.4596 7.63842 44.4596H11.4027L11.3886 48.3314ZM45.6948 49.9106C45.5194 50.3879 45.269 50.7973 44.9462 51.1388C44.6234 51.4804 44.228 51.7471 43.7648 51.9342C43.3015 52.1237 42.7869 52.2173 42.2207 52.2173C41.6709 52.2173 41.1679 52.1237 40.7094 51.9342C40.2509 51.7447 39.8555 51.4804 39.5209 51.1388C39.1887 50.7973 38.929 50.3879 38.7442 49.9106C38.5594 49.4333 38.4682 48.907 38.4682 48.3314C38.4682 47.7653 38.5594 47.2483 38.7442 46.7804C38.929 46.3125 39.184 45.9031 39.5069 45.5521C39.8297 45.2012 40.2275 44.9322 40.693 44.7427C41.1609 44.5532 41.6686 44.4596 42.2184 44.4596C42.7845 44.4596 43.2992 44.5508 43.7624 44.7357C44.2256 44.9205 44.6163 45.1802 44.9368 45.5124C45.255 45.8446 45.5053 46.2516 45.6855 46.7336C45.8656 47.2155 45.9545 47.7489 45.9545 48.3314C45.9592 48.907 45.8726 49.4333 45.6948 49.9106Z" fill="white"/>
<path d="M61.8278 57.9116C61.4418 57.6238 60.995 57.4788 60.492 57.4788C59.989 57.4788 59.5562 57.6192 59.1959 57.8976C58.8005 58.204 58.6017 58.6134 58.6017 59.1258C58.6017 59.6381 58.8005 60.0522 59.1959 60.3681C59.5468 60.6558 59.9796 60.8009 60.492 60.8009C61.0043 60.8009 61.4465 60.6558 61.8138 60.3681C62.2092 60.0616 62.408 59.6475 62.408 59.1258C62.408 58.6041 62.2139 58.1994 61.8278 57.9116Z" fill="white"/>
<path d="M67.5081 43.0232C66.8414 42.4079 66.0389 41.94 65.1008 41.6195C64.1603 41.3013 63.1286 41.1399 62.0033 41.1399C60.5552 41.1399 59.2638 41.4089 58.1315 41.9493V46.9956H62.0033V44.4596C62.5695 44.4596 63.0842 44.5508 63.5497 44.7357C64.0129 44.9205 64.406 45.1802 64.7311 45.5124C65.054 45.8446 65.3043 46.2493 65.4798 46.7265C65.6552 47.2038 65.7418 47.7396 65.7418 48.3314C65.7418 48.907 65.6552 49.4333 65.4798 49.9106C65.3043 50.3879 65.054 50.7973 64.7311 51.1388C64.4083 51.4804 64.0129 51.7471 63.5497 51.9342C63.0865 52.1237 62.5718 52.2173 62.0033 52.2173H58.1315C57.322 52.2173 56.688 51.974 56.2295 51.4897C55.7709 50.9961 55.5416 50.2755 55.5416 49.3304V37.8342H51.6698V49.2766C51.6698 50.1773 51.8102 51.0125 52.0886 51.7869C52.367 52.5519 52.7857 53.2116 53.3425 53.7707C53.89 54.3299 54.5708 54.765 55.3802 55.0809C56.1803 55.3873 57.0974 55.5394 58.1338 55.5394V55.5534H62.0056C63.1309 55.5534 64.1627 55.392 65.1031 55.0668C66.0436 54.744 66.846 54.2784 67.5105 53.6702C68.1772 53.0642 68.6942 52.3086 69.0686 51.4102C69.4429 50.5095 69.6277 49.4848 69.6277 48.3338C69.6277 47.1921 69.4405 46.1744 69.0686 45.2854C68.6942 44.3917 68.1749 43.6384 67.5081 43.0232Z" fill="white"/>
<path d="M95.94 57.9116C95.554 57.6238 95.1072 57.4788 94.6042 57.4788C94.0988 57.4788 93.6684 57.6192 93.3081 57.8976C92.9127 58.204 92.7139 58.6134 92.7139 59.1258C92.7139 59.6381 92.9127 60.0522 93.3081 60.3681C93.659 60.6558 94.0918 60.8009 94.6042 60.8009C95.1165 60.8009 95.5563 60.6558 95.926 60.3681C96.3213 60.0616 96.5202 59.6475 96.5202 59.1258C96.5202 58.6041 96.326 58.1994 95.94 57.9116Z" fill="white"/>
<path d="M150.939 45.2831C150.56 44.3917 150.038 43.6408 149.374 43.0302C148.707 42.4102 147.902 41.9423 146.957 41.6265C146.021 41.3036 144.992 41.1399 143.867 41.1399C142.741 41.1399 141.712 41.3013 140.776 41.6265C139.84 41.9587 139.031 42.4313 138.348 43.0442C137.674 43.6642 137.15 44.4198 136.783 45.3112C136.406 46.2025 136.217 47.2085 136.217 48.3338V49.3468C136.217 50.2919 135.987 51.0078 135.529 51.4921C135.087 51.9693 134.476 52.2126 133.706 52.229C133.678 52.229 133.655 52.222 133.627 52.222C132.817 52.222 132.183 51.9787 131.725 51.4944C131.266 51.0008 131.037 50.2802 131.037 49.3351V44.4783H132.63V41.1539H127.193V49.169C127.193 50.2311 126.95 51.0031 126.463 51.4898C125.986 51.9764 125.357 52.2173 124.575 52.2173C123.756 52.2173 123.108 51.974 122.634 51.4898C122.156 51.0031 121.918 50.2217 121.918 49.1432V44.4736H123.59V41.1539H118.069V49.169C118.069 50.2311 117.826 51.0031 117.342 51.4898C116.864 51.9764 116.235 52.2173 115.454 52.2173C114.644 52.2173 113.996 51.974 113.512 51.4898C113.035 51.0031 112.796 50.2217 112.796 49.1432V44.4736H114.469V41.1539H108.95V49.3304C108.95 50.2755 108.721 50.9961 108.262 51.4898C107.804 51.9764 107.165 52.2173 106.346 52.2173C105.527 52.2173 104.889 51.974 104.43 51.4898C103.971 50.9961 103.742 50.2755 103.742 49.3304V48.3314C103.742 47.1898 103.557 46.1721 103.188 45.2831C102.811 44.3917 102.287 43.6361 101.623 43.0161C100.956 42.4055 100.156 41.9376 99.22 41.6124C98.2748 41.2966 97.2407 41.1399 96.1155 41.1399C94.9902 41.1399 93.9608 41.3013 93.025 41.6265C92.756 41.7247 92.4939 41.8347 92.2436 41.9493V46.9956H96.1155V44.4596C96.6816 44.4596 97.1963 44.5485 97.6548 44.7286C98.1227 44.9181 98.5181 45.1778 98.8433 45.5124C99.1661 45.8446 99.4141 46.2493 99.5849 46.7265C99.7651 47.2038 99.854 47.7396 99.854 48.3314C99.854 48.907 99.7651 49.4333 99.5849 49.9106C99.4141 50.3879 99.1661 50.7973 98.8433 51.1388C98.5181 51.4804 98.1227 51.7471 97.6548 51.9342C97.1963 52.1237 96.684 52.2173 96.1155 52.2173H92.2413C91.4318 52.2173 90.7978 51.974 90.3393 51.4898C89.8807 50.9961 89.6515 50.2755 89.6515 49.3304V48.3455C89.6515 47.1945 89.462 46.1674 89.0853 45.2691C88.7157 44.3707 88.194 43.6197 87.5202 43.0161C86.8534 42.4055 86.0533 41.9376 85.1175 41.6124C84.1817 41.2966 83.1477 41.1399 82.013 41.1399H79.463V44.4596H82.0271C82.5839 44.4596 83.0962 44.5532 83.5641 44.7427C84.032 44.9322 84.4227 45.1965 84.7385 45.5381C85.0614 45.8797 85.3141 46.2891 85.4942 46.7663C85.665 47.2436 85.7515 47.77 85.7515 48.3455C85.7515 48.9397 85.665 49.4754 85.4942 49.9504C85.3141 50.4276 85.0614 50.8324 84.7385 51.1646C84.425 51.5061 84.032 51.7681 83.5641 51.9483C83.0962 52.1284 82.5839 52.2173 82.0271 52.2173H76.8989V55.5511H82.013C83.1477 55.5511 84.1817 55.3897 85.1175 55.0645C86.0089 54.758 86.7786 54.3182 87.4243 53.7427L87.4523 53.7684C88.0021 54.3275 88.6806 54.7627 89.49 55.0785C90.2738 55.385 91.1768 55.5417 92.2038 55.5511H92.2436H96.1155C97.2407 55.5511 98.2748 55.3897 99.22 55.0645C100.111 54.758 100.879 54.3229 101.527 53.7567L101.541 53.7707C102.091 54.3299 102.774 54.765 103.592 55.0809C104.374 55.3873 105.279 55.5441 106.304 55.5534H106.344C106.435 55.5534 106.519 55.5417 106.606 55.53C107.539 55.5043 108.374 55.3569 109.097 55.0668C109.764 54.8142 110.34 54.4819 110.824 54.0679C111.364 54.5451 111.994 54.9054 112.712 55.1464C113.512 55.4084 114.427 55.5371 115.451 55.5371C116.46 55.5371 117.363 55.3967 118.163 55.1183C118.855 54.875 119.459 54.5334 119.971 54.0936C120.493 54.5521 121.113 54.9031 121.833 55.1464C122.634 55.4084 123.546 55.5371 124.573 55.5371C125.581 55.5371 126.484 55.3967 127.284 55.1183C127.996 54.8656 128.611 54.5124 129.133 54.0515C129.629 54.4749 130.206 54.8118 130.873 55.0645C131.673 55.3803 132.59 55.5371 133.627 55.5371V55.5511C134.67 55.5417 135.587 55.385 136.38 55.0785C137.19 54.7627 137.873 54.3275 138.432 53.7684L138.446 53.7544C139.104 54.3205 139.88 54.758 140.781 55.0621C141.717 55.3873 142.746 55.5488 143.871 55.5488C144.997 55.5488 146.026 55.3873 146.962 55.0621C147.907 54.7393 148.712 54.2761 149.379 53.6725C150.043 53.0619 150.565 52.3062 150.944 51.4055C151.313 50.5048 151.498 49.4801 151.498 48.3291C151.493 47.1991 151.309 46.1815 150.939 45.2831ZM147.343 49.9106C147.168 50.3879 146.917 50.7973 146.595 51.1388C146.272 51.4804 145.876 51.7471 145.413 51.9342C144.95 52.1237 144.435 52.2173 143.869 52.2173C143.319 52.2173 142.816 52.1237 142.358 51.9342C141.899 51.7447 141.504 51.4804 141.169 51.1388C140.837 50.7973 140.577 50.3879 140.393 49.9106C140.208 49.4333 140.116 48.907 140.116 48.3314C140.116 47.7653 140.208 47.2483 140.393 46.7804C140.577 46.3125 140.83 45.9031 141.155 45.5521C141.48 45.2012 141.876 44.9322 142.344 44.7427C142.812 44.5532 143.319 44.4596 143.869 44.4596C144.435 44.4596 144.95 44.5508 145.413 44.7357C145.876 44.9205 146.267 45.1802 146.588 45.5124C146.906 45.8446 147.156 46.2516 147.336 46.7336C147.516 47.2155 147.605 47.7489 147.605 48.3314C147.608 48.907 147.519 49.4333 147.343 49.9106Z" fill="white"/>
<path d="M57.3477 76.2976H58.6836V83.7465C58.6836 84.6917 58.4543 85.4076 57.9957 85.8988C57.5372 86.3878 56.9032 86.6334 56.0938 86.6334V89.9532C57.1372 89.9438 58.0589 89.7847 58.859 89.4736C59.6591 89.1624 60.3376 88.7296 60.8897 88.1728C61.4442 87.6137 61.8582 86.954 62.139 86.189C62.4174 85.4239 62.5577 84.5887 62.5577 83.6787V73.6119H57.3501V76.2976H57.3477Z" fill="white"/>
<path d="M68.0088 66.9608H64.3779V84.6894H69.3844V81.372H68.0088V66.9608Z" fill="white"/>
<path d="M84.3548 72.1755C83.6857 71.5602 82.8809 71.0923 81.9475 70.7718C81.0117 70.4536 79.9823 70.2922 78.857 70.2922C77.7224 70.2922 76.6883 70.4536 75.7525 70.7788C74.8167 71.1016 74.012 71.5719 73.3382 72.1895C72.6644 72.8048 72.138 73.5604 71.766 74.4565C71.3917 75.3525 71.2069 76.3608 71.2069 77.4861C71.2069 78.6371 71.3941 79.6641 71.766 80.5625C72.1404 81.4632 72.6644 82.2165 73.3382 82.8225C74.012 83.4307 74.8167 83.8939 75.7525 84.2191C76.6883 84.5443 77.7224 84.7057 78.857 84.7057C80.2514 84.7057 81.496 84.4578 82.5955 83.9641C82.5511 84.7549 82.3265 85.3678 81.9218 85.7983C81.4632 86.2919 80.8245 86.5399 80.0057 86.5399V89.9275C81.0491 89.9181 81.9732 89.759 82.778 89.4479C83.5828 89.1367 84.2612 88.7039 84.8087 88.1471C85.3585 87.588 85.7725 86.9259 86.058 86.1562C86.341 85.3865 86.4838 84.5537 86.4838 83.653V77.4861C86.4838 76.3444 86.2966 75.3267 85.9246 74.4377C85.548 73.5441 85.0263 72.7907 84.3548 72.1755ZM82.3171 79.0629C82.1417 79.5402 81.8937 79.9496 81.5755 80.2911C81.2573 80.6327 80.862 80.8994 80.3941 81.0866C79.9262 81.2761 79.4091 81.3696 78.843 81.3696C78.2932 81.3696 77.7902 81.2761 77.3317 81.0866C76.8731 80.8971 76.4778 80.6327 76.1432 80.2911C75.811 79.9496 75.5513 79.5402 75.3665 79.0629C75.1817 78.5856 75.0905 78.0593 75.0905 77.4838C75.0905 76.9176 75.1817 76.3982 75.3665 75.9257C75.5513 75.4531 75.8063 75.0437 76.1362 74.6974C76.4637 74.3512 76.8591 74.0845 77.3223 73.895C77.7855 73.7055 78.2956 73.6119 78.8547 73.6119C79.4115 73.6119 79.9262 73.7031 80.3941 73.888C80.862 74.0728 81.255 74.3325 81.5755 74.6647C81.8937 74.9969 82.1417 75.4016 82.3171 75.8789C82.4926 76.3561 82.5815 76.8919 82.5815 77.4838C82.5815 78.0616 82.4926 78.588 82.3171 79.0629Z" fill="white"/>
<path d="M92.6482 71.9532C93.1606 71.9532 93.6004 71.8129 93.9701 71.5345C94.3654 71.221 94.5643 70.8022 94.5643 70.2805C94.5643 69.7588 94.3701 69.3541 93.9841 69.0663C93.5981 68.7785 93.1512 68.6335 92.6482 68.6335C92.1429 68.6335 91.7124 68.7739 91.3522 69.0523C90.9568 69.3587 90.7579 69.7681 90.7579 70.2805C90.7579 70.7928 90.9568 71.2116 91.3522 71.5345C91.7031 71.8129 92.1336 71.9532 92.6482 71.9532Z" fill="white"/>
<path d="M99.9615 78.4827C99.9615 79.4279 99.7322 80.1484 99.2737 80.6421C98.8151 81.138 98.1765 81.3837 97.3576 81.3837C96.5482 81.3837 95.9142 81.1357 95.4556 80.6421C94.9971 80.1484 94.7678 79.4279 94.7678 78.4827V73.6119H89.5578V76.2976H90.8936V83.7466C90.8936 84.6917 90.6644 85.4076 90.2058 85.8919C89.7473 86.3855 89.1133 86.6335 88.3038 86.6335V89.9532C89.3472 89.9438 90.2643 89.7871 91.0574 89.4806C91.8669 89.1648 92.5453 88.7297 93.0951 88.1729C93.6519 87.6137 94.0707 86.954 94.3491 86.189C94.5643 85.5947 94.6953 84.9607 94.7398 84.287C95.4954 84.556 96.354 84.6964 97.3179 84.7057H97.3576C98.401 84.6964 99.3251 84.5373 100.13 84.2261C100.935 83.915 101.611 83.4822 102.161 82.9231C102.708 82.3663 103.124 81.7018 103.41 80.9321C103.693 80.1625 103.836 79.3296 103.836 78.4289V66.9724H99.9615V78.4827Z" fill="white"/>
<path d="M109.284 66.9608H105.656V84.6894H110.662V81.372H109.284V66.9608Z" fill="white"/>
<path d="M129.701 78.3213C129.701 79.3834 129.462 80.1554 128.985 80.6421C128.508 81.1287 127.879 81.3696 127.095 81.3696H124.437C123.628 81.3696 122.982 81.1263 122.5 80.6421C122.018 80.1554 121.78 79.374 121.78 78.2955V73.6142H117.933V78.2955C117.933 80.3917 118.509 81.9873 119.66 83.0868C120.785 84.156 122.376 84.6917 124.437 84.6917H127.095C128.103 84.6917 129.004 84.5513 129.802 84.2729C130.597 83.9945 131.28 83.5828 131.846 83.0377C132.413 82.4926 132.841 81.8282 133.128 81.0398C133.416 80.2537 133.561 79.346 133.561 78.3213V73.6119H135.154V70.2922H129.703V78.3213H129.701Z" fill="white"/>
<path d="M127.083 87.0593C126.697 86.7668 126.255 86.6194 125.761 86.6194C125.249 86.6194 124.812 86.7598 124.454 87.0382C124.058 87.3447 123.859 87.7588 123.859 88.2805C123.859 88.7835 124.058 89.1976 124.454 89.5228C124.805 89.8012 125.24 89.9415 125.761 89.9415C126.264 89.9415 126.702 89.8012 127.071 89.5228C127.467 89.2069 127.666 88.7952 127.666 88.2805C127.663 87.7588 127.469 87.3517 127.083 87.0593Z" fill="white"/>
<path d="M146.056 71.9532L146.042 78.3096C146.042 79.3717 145.804 80.1438 145.326 80.6304C144.849 81.117 144.22 81.3579 143.436 81.3579V81.372C142.627 81.372 141.993 81.1287 141.534 80.6444C141.076 80.1508 140.846 79.4302 140.846 78.4851V66.9888H136.974V78.4312C136.974 79.332 137.115 80.1671 137.393 80.9415C137.672 81.7065 138.09 82.3663 138.647 82.9254C139.195 83.4845 139.875 83.9197 140.685 84.2355C141.485 84.542 142.402 84.6941 143.436 84.6941C143.562 84.6941 143.682 84.68 143.799 84.6543C145.645 84.5888 147.116 84.0601 148.188 83.0283C149.329 81.9264 149.9 80.3543 149.9 78.3119V75.2753H151.493V71.9556H146.056V71.9532Z" fill="white"/>
<path d="M144.791 87.0663C144.405 86.7785 143.958 86.6335 143.455 86.6335C142.952 86.6335 142.514 86.7739 142.147 87.0523C141.761 87.3587 141.567 87.7681 141.567 88.2805C141.567 88.7928 141.759 89.2069 142.147 89.5228C142.507 89.8105 142.943 89.9556 143.455 89.9556C143.958 89.9556 144.395 89.8105 144.765 89.5228C145.17 89.2069 145.373 88.7952 145.373 88.2805C145.371 87.7588 145.177 87.3541 144.791 87.0663Z" fill="white"/>
<path d="M221.343 89.9579V98.0267H192.133V48.6706C192.133 41.1118 194.795 33.9576 199.61 28.4692C202.218 25.484 205.285 22.9293 208.783 20.8027C210.612 22.7936 212.36 24.9459 213.838 27.2058C210.666 29.0072 207.922 31.2134 205.662 33.8219C202.139 37.8037 200.201 43.0746 200.201 48.6706V89.9579H221.343Z" fill="white"/>
<path d="M225 98.0268H216.931V36.1591C216.931 33.7564 216.335 31.4333 215.207 29.4424C210.149 20.5079 200.625 12.9023 196.323 9.75098C192.018 12.9093 182.478 20.5337 177.434 29.4424C176.306 31.4333 175.709 33.7564 175.709 36.1591V98.0268H167.641V36.1591C167.641 32.3644 168.6 28.6681 170.41 25.4653C178.002 12.0577 193.459 1.86925 194.112 1.44112L196.318 0L198.524 1.44112C199.179 1.86691 214.634 12.0577 222.225 25.4653C224.038 28.6657 224.995 32.3644 224.995 36.1591V98.0268H225Z" fill="white"/>
</svg>
