<svg width="300" height="250" viewBox="0 0 300 250" fill="none" xmlns="http://www.w3.org/2000/svg">
<path fill-rule="evenodd" clip-rule="evenodd" d="M42.7119 11.4087C40.4659 11.4087 38.6441 9.63095 38.6441 7.44147V3.96825H35.0837C32.8373 3.96825 31.017 2.19246 31.017 0H11.6949C11.6949 2.19097 9.87255 3.96825 7.62814 3.96825H4.0678V7.44147C4.0678 9.63294 2.24746 11.4087 0 11.4087V30.2579C2.24593 30.2579 4.0678 32.0357 4.0678 34.2252V37.6984H7.62814C9.87458 37.6984 11.6949 39.4742 11.6949 41.6667H31.017C31.017 39.4757 32.8393 37.6984 35.0837 37.6984H38.6441V34.2252C38.6441 32.0337 40.4644 30.2579 42.7119 30.2579V11.4087ZM30.0254 41.1706H21.8644V33.2093C24.4342 32.9613 26.4407 30.8462 26.4407 28.2748V25.7937H28.9841C31.618 25.7937 33.7871 23.8358 34.0434 21.3294H42.2034V29.2907C39.6336 29.5387 37.6271 31.6538 37.6271 34.2252V36.7064H35.0837C32.4498 36.7064 30.2807 38.6642 30.0244 41.1706H30.0254ZM12.6864 41.1706H20.8475V33.2093C18.2781 32.9603 16.2712 30.8442 16.2712 28.2748V25.7937H13.7278C11.0919 25.7937 8.92424 23.8363 8.66848 21.3294H0.508475V29.2907C3.0778 29.5397 5.08475 31.6558 5.08475 34.2252V36.7064H7.62814C10.2641 36.7064 12.4317 38.6637 12.6875 41.1706H12.6864ZM12.6864 0.496032H20.8475V8.45734C18.2776 8.70536 16.2712 10.8204 16.2712 13.3919V15.873H13.7278C11.0939 15.873 8.92475 17.8309 8.66848 20.3373H0.508475V12.376C3.07831 12.128 5.08475 10.0129 5.08475 7.44147V4.96032H7.62814C10.262 4.96032 12.4312 3.00248 12.6875 0.496032H12.6864ZM30.0254 0.496032H21.8644V8.45734C24.4337 8.70635 26.4407 10.8224 26.4407 13.3919V15.873H28.9841C31.62 15.873 33.7876 17.8304 34.0434 20.3373H42.2034V12.376C39.6341 12.127 37.6271 10.0109 37.6271 7.44147V4.96032H35.0837C32.4478 4.96032 30.2802 3.00298 30.0244 0.496032H30.0254ZM25.4237 24.8016V28.2748C25.4237 30.4663 23.6034 32.2421 21.3559 32.2421C19.11 32.2421 17.2881 30.4643 17.2881 28.2748V24.8016H13.7278C11.4814 24.8016 9.66102 23.0258 9.66102 20.8333C9.66102 18.6424 11.4834 16.8651 13.7278 16.8651H17.2881V13.3919C17.2881 11.2004 19.1085 9.4246 21.3559 9.4246C23.6019 9.4246 25.4237 11.2024 25.4237 13.3919V16.8651H28.9841C31.2305 16.8651 33.0509 18.6409 33.0509 20.8333C33.0509 23.0243 31.2285 24.8016 28.9841 24.8016H25.4237Z" fill="#35506F" fill-opacity="0.15"/>
<path fill-rule="evenodd" clip-rule="evenodd" d="M43.2204 136.409C40.9745 136.409 39.1526 134.631 39.1526 132.441V128.968H35.5923C33.3458 128.968 31.5255 127.192 31.5255 125H12.2035C12.2035 127.191 10.3811 128.968 8.13668 128.968H4.57634V132.441C4.57634 134.633 2.756 136.409 0.508545 136.409V155.258C2.75448 155.258 4.57634 157.036 4.57634 159.225V162.698H8.13668C10.3831 162.698 12.2035 164.474 12.2035 166.667H31.5255C31.5255 164.476 33.3479 162.698 35.5923 162.698H39.1526V159.225C39.1526 157.034 40.973 155.258 43.2204 155.258V136.409ZM30.534 166.171H22.373V158.209C24.9428 157.961 26.9492 155.846 26.9492 153.275V150.794H29.4926C32.1265 150.794 34.2957 148.836 34.5519 146.329H42.7119V154.291C40.1421 154.539 38.1357 156.654 38.1357 159.225V161.706H35.5923C32.9584 161.706 30.7892 163.664 30.533 166.171H30.534ZM13.195 166.171H21.356V158.209C18.7867 157.96 16.7797 155.844 16.7797 153.275V150.794H14.2363C11.6004 150.794 9.43279 148.836 9.17702 146.329H1.01702V154.291C3.58634 154.54 5.59329 156.656 5.59329 159.225V161.706H8.13668C10.7726 161.706 12.9402 163.664 13.196 166.171H13.195ZM13.195 125.496H21.356V133.457C18.7862 133.705 16.7797 135.82 16.7797 138.392V140.873H14.2363C11.6024 140.873 9.43329 142.831 9.17702 145.337H1.01702V137.376C3.58685 137.128 5.59329 135.013 5.59329 132.441V129.96H8.13668C10.7706 129.96 12.9397 128.002 13.196 125.496H13.195ZM30.534 125.496H22.373V133.457C24.9423 133.706 26.9492 135.822 26.9492 138.392V140.873H29.4926C32.1286 140.873 34.2962 142.83 34.5519 145.337H42.7119V137.376C40.1426 137.127 38.1357 135.011 38.1357 132.441V129.96H35.5923C32.9564 129.96 30.7887 128.003 30.533 125.496H30.534ZM25.9323 149.802V153.275C25.9323 155.466 24.1119 157.242 21.8645 157.242C19.6185 157.242 17.7967 155.464 17.7967 153.275V149.802H14.2363C11.9899 149.802 10.1696 148.026 10.1696 145.833C10.1696 143.642 11.9919 141.865 14.2363 141.865H17.7967V138.392C17.7967 136.2 19.617 134.425 21.8645 134.425C24.1104 134.425 25.9323 136.202 25.9323 138.392V141.865H29.4926C31.7391 141.865 33.5594 143.641 33.5594 145.833C33.5594 148.024 31.737 149.802 29.4926 149.802H25.9323Z" fill="#35506F" fill-opacity="0.15"/>
<path fill-rule="evenodd" clip-rule="evenodd" d="M43.2204 53.0754C40.9745 53.0754 39.1526 51.2976 39.1526 49.1081V45.6349H35.5923C33.3458 45.6349 31.5255 43.8591 31.5255 41.6667H12.2035C12.2035 43.8576 10.3811 45.6349 8.13668 45.6349H4.57634V49.1081C4.57634 51.2996 2.756 53.0754 0.508545 53.0754V71.9246C2.75448 71.9246 4.57634 73.7024 4.57634 75.8919V79.3651H8.13668C10.3831 79.3651 12.2035 81.1409 12.2035 83.3333H31.5255C31.5255 81.1424 33.3479 79.3651 35.5923 79.3651H39.1526V75.8919C39.1526 73.7004 40.973 71.9246 43.2204 71.9246V53.0754ZM30.534 82.8373H22.373V74.876C24.9428 74.628 26.9492 72.5129 26.9492 69.9415V67.4603H29.4926C32.1265 67.4603 34.2957 65.5025 34.5519 62.996H42.7119V70.9573C40.1421 71.2053 38.1357 73.3204 38.1357 75.8919V78.373H35.5923C32.9584 78.373 30.7892 80.3308 30.533 82.8373H30.534ZM13.195 82.8373H21.356V74.876C18.7867 74.627 16.7797 72.5109 16.7797 69.9415V67.4603H14.2363C11.6004 67.4603 9.43279 65.503 9.17702 62.996H1.01702V70.9573C3.58634 71.2063 5.59329 73.3224 5.59329 75.8919V78.373H8.13668C10.7726 78.373 12.9402 80.3304 13.196 82.8373H13.195ZM13.195 42.1627H21.356V50.124C18.7862 50.372 16.7797 52.4871 16.7797 55.0585V57.5397H14.2363C11.6024 57.5397 9.43329 59.4975 9.17702 62.004H1.01702V54.0426C3.58685 53.7946 5.59329 51.6796 5.59329 49.1081V46.627H8.13668C10.7706 46.627 12.9397 44.6691 13.196 42.1627H13.195ZM30.534 42.1627H22.373V50.124C24.9423 50.373 26.9492 52.4891 26.9492 55.0585V57.5397H29.4926C32.1286 57.5397 34.2962 59.497 34.5519 62.004H42.7119V54.0426C40.1426 53.7936 38.1357 51.6776 38.1357 49.1081V46.627H35.5923C32.9564 46.627 30.7887 44.6696 30.533 42.1627H30.534ZM25.9323 66.4682V69.9415C25.9323 72.1329 24.1119 73.9087 21.8645 73.9087C19.6185 73.9087 17.7967 72.1309 17.7967 69.9415V66.4682H14.2363C11.9899 66.4682 10.1696 64.6925 10.1696 62.5C10.1696 60.309 11.9919 58.5317 14.2363 58.5317H17.7967V55.0585C17.7967 52.8671 19.617 51.0913 21.8645 51.0913C24.1104 51.0913 25.9323 52.869 25.9323 55.0585V58.5317H29.4926C31.7391 58.5317 33.5594 60.3075 33.5594 62.5C33.5594 64.691 31.737 66.4682 29.4926 66.4682H25.9323Z" fill="#35506F" fill-opacity="0.15"/>
<path fill-rule="evenodd" clip-rule="evenodd" d="M43.7287 178.075C41.4828 178.075 39.6609 176.298 39.6609 174.108V170.635H36.1006C33.8541 170.635 32.0338 168.859 32.0338 166.667H12.7118C12.7118 168.858 10.8894 170.635 8.64498 170.635H5.08464V174.108C5.08464 176.3 3.2643 178.075 1.01685 178.075V196.925C3.26278 196.925 5.08464 198.702 5.08464 200.892V204.365H8.64498C10.8914 204.365 12.7118 206.141 12.7118 208.333H32.0338C32.0338 206.142 33.8562 204.365 36.1006 204.365H39.6609V200.892C39.6609 198.7 41.4813 196.925 43.7287 196.925V178.075ZM31.0423 207.837H22.8813V199.876C25.4511 199.628 27.4575 197.513 27.4575 194.941V192.46H30.0009C32.6348 192.46 34.804 190.502 35.0602 187.996H43.2202V195.957C40.6504 196.205 38.644 198.32 38.644 200.892V203.373H36.1006C33.4667 203.373 31.2975 205.331 31.0413 207.837H31.0423ZM13.7033 207.837H21.8643V199.876C19.295 199.627 17.288 197.511 17.288 194.941V192.46H14.7446C12.1087 192.46 9.94109 190.503 9.68532 187.996H1.52532V195.957C4.09464 196.206 6.10159 198.322 6.10159 200.892V203.373H8.64498C11.2809 203.373 13.4485 205.33 13.7043 207.837H13.7033ZM13.7033 167.163H21.8643V175.124C19.2945 175.372 17.288 177.487 17.288 180.059V182.54H14.7446C12.1107 182.54 9.94159 184.498 9.68532 187.004H1.52532V179.043C4.09515 178.795 6.10159 176.68 6.10159 174.108V171.627H8.64498C11.2789 171.627 13.448 169.669 13.7043 167.163H13.7033ZM31.0423 167.163H22.8813V175.124C25.4506 175.373 27.4575 177.489 27.4575 180.059V182.54H30.0009C32.6369 182.54 34.8045 184.497 35.0602 187.004H43.2202V179.043C40.6509 178.794 38.644 176.678 38.644 174.108V171.627H36.1006C33.4647 171.627 31.297 169.67 31.0413 167.163H31.0423ZM26.4406 191.468V194.941C26.4406 197.133 24.6202 198.909 22.3728 198.909C20.1269 198.909 18.305 197.131 18.305 194.941V191.468H14.7446C12.4982 191.468 10.6779 189.692 10.6779 187.5C10.6779 185.309 12.5002 183.532 14.7446 183.532H18.305V180.059C18.305 177.867 20.1253 176.091 22.3728 176.091C24.6187 176.091 26.4406 177.869 26.4406 180.059V183.532H30.0009C32.2474 183.532 34.0677 185.308 34.0677 187.5C34.0677 189.691 32.2453 191.468 30.0009 191.468H26.4406Z" fill="#35506F" fill-opacity="0.15"/>
<path fill-rule="evenodd" clip-rule="evenodd" d="M43.2204 94.742C40.9745 94.742 39.1526 92.9643 39.1526 90.7748V87.3016H35.5923C33.3458 87.3016 31.5255 85.5258 31.5255 83.3333H12.2035C12.2035 85.5243 10.3811 87.3016 8.13668 87.3016H4.57634V90.7748C4.57634 92.9662 2.756 94.742 0.508545 94.742V113.591C2.75448 113.591 4.57634 115.369 4.57634 117.559V121.032H8.13668C10.3831 121.032 12.2035 122.808 12.2035 125H31.5255C31.5255 122.809 33.3479 121.032 35.5923 121.032H39.1526V117.559C39.1526 115.367 40.973 113.591 43.2204 113.591V94.742ZM30.534 124.504H22.373V116.543C24.9428 116.295 26.9492 114.18 26.9492 111.608V109.127H29.4926C32.1265 109.127 34.2957 107.169 34.5519 104.663H42.7119V112.624C40.1421 112.872 38.1357 114.987 38.1357 117.559V120.04H35.5923C32.9584 120.04 30.7892 121.998 30.533 124.504H30.534ZM13.195 124.504H21.356V116.543C18.7867 116.294 16.7797 114.178 16.7797 111.608V109.127H14.2363C11.6004 109.127 9.43279 107.17 9.17702 104.663H1.01702V112.624C3.58634 112.873 5.59329 114.989 5.59329 117.559V120.04H8.13668C10.7726 120.04 12.9402 121.997 13.196 124.504H13.195ZM13.195 83.8293H21.356V91.7907C18.7862 92.0387 16.7797 94.1537 16.7797 96.7252V99.2063H14.2363C11.6024 99.2063 9.43329 101.164 9.17702 103.671H1.01702V95.7093C3.58685 95.4613 5.59329 93.3462 5.59329 90.7748V88.2936H8.13668C10.7706 88.2936 12.9397 86.3358 13.196 83.8293H13.195ZM30.534 83.8293H22.373V91.7907C24.9423 92.0397 26.9492 94.1557 26.9492 96.7252V99.2063H29.4926C32.1286 99.2063 34.2962 101.164 34.5519 103.671H42.7119V95.7093C40.1426 95.4603 38.1357 93.3442 38.1357 90.7748V88.2936H35.5923C32.9564 88.2936 30.7887 86.3363 30.533 83.8293H30.534ZM25.9323 108.135V111.608C25.9323 113.8 24.1119 115.575 21.8645 115.575C19.6185 115.575 17.7967 113.798 17.7967 111.608V108.135H14.2363C11.9899 108.135 10.1696 106.359 10.1696 104.167C10.1696 101.976 11.9919 100.198 14.2363 100.198H17.7967V96.7252C17.7967 94.5337 19.617 92.7579 21.8645 92.7579C24.1104 92.7579 25.9323 94.5357 25.9323 96.7252V100.198H29.4926C31.7391 100.198 33.5594 101.974 33.5594 104.167C33.5594 106.358 31.737 108.135 29.4926 108.135H25.9323Z" fill="#35506F" fill-opacity="0.15"/>
<path fill-rule="evenodd" clip-rule="evenodd" d="M43.7287 219.742C41.4828 219.742 39.6609 217.964 39.6609 215.775V212.302H36.1006C33.8541 212.302 32.0338 210.526 32.0338 208.333H12.7118C12.7118 210.524 10.8894 212.302 8.64498 212.302H5.08464V215.775C5.08464 217.966 3.2643 219.742 1.01685 219.742V238.591C3.26278 238.591 5.08464 240.369 5.08464 242.559V246.032H8.64498C10.8914 246.032 12.7118 247.808 12.7118 250H32.0338C32.0338 247.809 33.8562 246.032 36.1006 246.032H39.6609V242.559C39.6609 240.367 41.4813 238.591 43.7287 238.591V219.742ZM31.0423 249.504H22.8813V241.543C25.4511 241.295 27.4575 239.18 27.4575 236.608V234.127H30.0009C32.6348 234.127 34.804 232.169 35.0602 229.663H43.2202V237.624C40.6504 237.872 38.644 239.987 38.644 242.559V245.04H36.1006C33.4667 245.04 31.2975 246.998 31.0413 249.504H31.0423ZM13.7033 249.504H21.8643V241.543C19.295 241.294 17.288 239.178 17.288 236.608V234.127H14.7446C12.1087 234.127 9.94109 232.17 9.68532 229.663H1.52532V237.624C4.09464 237.873 6.10159 239.989 6.10159 242.559V245.04H8.64498C11.2809 245.04 13.4485 246.997 13.7043 249.504H13.7033ZM13.7033 208.829H21.8643V216.791C19.2945 217.039 17.288 219.154 17.288 221.725V224.206H14.7446C12.1107 224.206 9.94159 226.164 9.68532 228.671H1.52532V220.709C4.09515 220.461 6.10159 218.346 6.10159 215.775V213.294H8.64498C11.2789 213.294 13.448 211.336 13.7043 208.829H13.7033ZM31.0423 208.829H22.8813V216.791C25.4506 217.04 27.4575 219.156 27.4575 221.725V224.206H30.0009C32.6369 224.206 34.8045 226.164 35.0602 228.671H43.2202V220.709C40.6509 220.46 38.644 218.344 38.644 215.775V213.294H36.1006C33.4647 213.294 31.297 211.336 31.0413 208.829H31.0423ZM26.4406 233.135V236.608C26.4406 238.8 24.6202 240.575 22.3728 240.575C20.1269 240.575 18.305 238.798 18.305 236.608V233.135H14.7446C12.4982 233.135 10.6779 231.359 10.6779 229.167C10.6779 226.976 12.5002 225.198 14.7446 225.198H18.305V221.725C18.305 219.534 20.1253 217.758 22.3728 217.758C24.6187 217.758 26.4406 219.536 26.4406 221.725V225.198H30.0009C32.2474 225.198 34.0677 226.974 34.0677 229.167C34.0677 231.358 32.2453 233.135 30.0009 233.135H26.4406Z" fill="#35506F" fill-opacity="0.15"/>
<path fill-rule="evenodd" clip-rule="evenodd" d="M85.4238 11.4087C83.1779 11.4087 81.356 9.63095 81.356 7.44147V3.96825H77.7957C75.5492 3.96825 73.7289 2.19246 73.7289 0H54.4068C54.4068 2.19097 52.5845 3.96825 50.34 3.96825H46.7797V7.44147C46.7797 9.63294 44.9593 11.4087 42.7119 11.4087V30.2579C44.9578 30.2579 46.7797 32.0357 46.7797 34.2252V37.6984H50.34C52.5865 37.6984 54.4068 39.4742 54.4068 41.6667H73.7289C73.7289 39.4757 75.5512 37.6984 77.7957 37.6984H81.356V34.2252C81.356 32.0337 83.1763 30.2579 85.4238 30.2579V11.4087ZM72.7373 41.1706H64.5763V33.2093C67.1462 32.9613 69.1526 30.8462 69.1526 28.2748V25.7937H71.696C74.3299 25.7937 76.499 23.8358 76.7553 21.3294H84.9153V29.2907C82.3455 29.5387 80.339 31.6538 80.339 34.2252V36.7064H77.7957C75.1618 36.7064 72.9926 38.6642 72.7363 41.1706H72.7373ZM55.3984 41.1706H63.5594V33.2093C60.9901 32.9603 58.9831 30.8442 58.9831 28.2748V25.7937H56.4397C53.8038 25.7937 51.6362 23.8363 51.3804 21.3294H43.2204V29.2907C45.7897 29.5397 47.7967 31.6558 47.7967 34.2252V36.7064H50.34C52.976 36.7064 55.1436 38.6637 55.3994 41.1706H55.3984ZM55.3984 0.496032H63.5594V8.45734C60.9895 8.70536 58.9831 10.8204 58.9831 13.3919V15.873H56.4397C53.8058 15.873 51.6367 17.8309 51.3804 20.3373H43.2204V12.376C45.7902 12.128 47.7967 10.0129 47.7967 7.44147V4.96032H50.34C52.9739 4.96032 55.1431 3.00248 55.3994 0.496032H55.3984ZM72.7373 0.496032H64.5763V8.45734C67.1456 8.70635 69.1526 10.8224 69.1526 13.3919V15.873H71.696C74.3319 15.873 76.4995 17.8304 76.7553 20.3373H84.9153V12.376C82.346 12.127 80.339 10.0109 80.339 7.44147V4.96032H77.7957C75.1597 4.96032 72.9921 3.00298 72.7363 0.496032H72.7373ZM68.1357 24.8016V28.2748C68.1357 30.4663 66.3153 32.2421 64.0679 32.2421C61.8219 32.2421 60.0001 30.4643 60.0001 28.2748V24.8016H56.4397C54.1933 24.8016 52.3729 23.0258 52.3729 20.8333C52.3729 18.6424 54.1953 16.8651 56.4397 16.8651H60.0001V13.3919C60.0001 11.2004 61.8204 9.4246 64.0679 9.4246C66.3138 9.4246 68.1357 11.2024 68.1357 13.3919V16.8651H71.696C73.9424 16.8651 75.7628 18.6409 75.7628 20.8333C75.7628 23.0243 73.9404 24.8016 71.696 24.8016H68.1357Z" fill="#35506F" fill-opacity="0.15"/>
<path fill-rule="evenodd" clip-rule="evenodd" d="M85.9323 136.409C83.6864 136.409 81.8645 134.631 81.8645 132.441V128.968H78.3042C76.0578 128.968 74.2374 127.192 74.2374 125H54.9154C54.9154 127.191 53.093 128.968 50.8486 128.968H47.2883V132.441C47.2883 134.633 45.4679 136.409 43.2204 136.409V155.258C45.4664 155.258 47.2883 157.036 47.2883 159.225V162.698H50.8486C53.095 162.698 54.9154 164.474 54.9154 166.667H74.2374C74.2374 164.476 76.0598 162.698 78.3042 162.698H81.8645V159.225C81.8645 157.034 83.6849 155.258 85.9323 155.258V136.409ZM73.2459 166.171H65.0849V158.209C67.6547 157.961 69.6611 155.846 69.6611 153.275V150.794H72.2045C74.8384 150.794 77.0076 148.836 77.2639 146.329H85.4239V154.291C82.854 154.539 80.8476 156.654 80.8476 159.225V161.706H78.3042C75.6703 161.706 73.5011 163.664 73.2449 166.171H73.2459ZM55.9069 166.171H64.0679V158.209C61.4986 157.96 59.4916 155.844 59.4916 153.275V150.794H56.9483C54.3123 150.794 52.1447 148.836 51.8889 146.329H43.7289V154.291C46.2983 154.54 48.3052 156.656 48.3052 159.225V161.706H50.8486C53.4845 161.706 55.6522 163.664 55.9079 166.171H55.9069ZM55.9069 125.496H64.0679V133.457C61.4981 133.705 59.4916 135.82 59.4916 138.392V140.873H56.9483C54.3144 140.873 52.1452 142.831 51.8889 145.337H43.7289V137.376C46.2988 137.128 48.3052 135.013 48.3052 132.441V129.96H50.8486C53.4825 129.96 55.6516 128.002 55.9079 125.496H55.9069ZM73.2459 125.496H65.0849V133.457C67.6542 133.706 69.6611 135.822 69.6611 138.392V140.873H72.2045C74.8405 140.873 77.0081 142.83 77.2639 145.337H85.4239V137.376C82.8545 137.127 80.8476 135.011 80.8476 132.441V129.96H78.3042C75.6683 129.96 73.5006 128.003 73.2449 125.496H73.2459ZM68.6442 149.802V153.275C68.6442 155.466 66.8239 157.242 64.5764 157.242C62.3305 157.242 60.5086 155.464 60.5086 153.275V149.802H56.9483C54.7018 149.802 52.8815 148.026 52.8815 145.833C52.8815 143.642 54.7038 141.865 56.9483 141.865H60.5086V138.392C60.5086 136.2 62.3289 134.425 64.5764 134.425C66.8223 134.425 68.6442 136.202 68.6442 138.392V141.865H72.2045C74.451 141.865 76.2713 143.641 76.2713 145.833C76.2713 148.024 74.4489 149.802 72.2045 149.802H68.6442Z" fill="#35506F" fill-opacity="0.15"/>
<path fill-rule="evenodd" clip-rule="evenodd" d="M85.9323 53.0754C83.6864 53.0754 81.8645 51.2976 81.8645 49.1081V45.6349H78.3042C76.0578 45.6349 74.2374 43.8591 74.2374 41.6667H54.9154C54.9154 43.8576 53.093 45.6349 50.8486 45.6349H47.2883V49.1081C47.2883 51.2996 45.4679 53.0754 43.2204 53.0754V71.9246C45.4664 71.9246 47.2883 73.7024 47.2883 75.8919V79.3651H50.8486C53.095 79.3651 54.9154 81.1409 54.9154 83.3333H74.2374C74.2374 81.1424 76.0598 79.3651 78.3042 79.3651H81.8645V75.8919C81.8645 73.7004 83.6849 71.9246 85.9323 71.9246V53.0754ZM73.2459 82.8373H65.0849V74.876C67.6547 74.628 69.6611 72.5129 69.6611 69.9415V67.4603H72.2045C74.8384 67.4603 77.0076 65.5025 77.2639 62.996H85.4239V70.9573C82.854 71.2053 80.8476 73.3204 80.8476 75.8919V78.373H78.3042C75.6703 78.373 73.5011 80.3308 73.2449 82.8373H73.2459ZM55.9069 82.8373H64.0679V74.876C61.4986 74.627 59.4916 72.5109 59.4916 69.9415V67.4603H56.9483C54.3123 67.4603 52.1447 65.503 51.8889 62.996H43.7289V70.9573C46.2983 71.2063 48.3052 73.3224 48.3052 75.8919V78.373H50.8486C53.4845 78.373 55.6522 80.3304 55.9079 82.8373H55.9069ZM55.9069 42.1627H64.0679V50.124C61.4981 50.372 59.4916 52.4871 59.4916 55.0585V57.5397H56.9483C54.3144 57.5397 52.1452 59.4975 51.8889 62.004H43.7289V54.0426C46.2988 53.7946 48.3052 51.6796 48.3052 49.1081V46.627H50.8486C53.4825 46.627 55.6516 44.6691 55.9079 42.1627H55.9069ZM73.2459 42.1627H65.0849V50.124C67.6542 50.373 69.6611 52.4891 69.6611 55.0585V57.5397H72.2045C74.8405 57.5397 77.0081 59.497 77.2639 62.004H85.4239V54.0426C82.8545 53.7936 80.8476 51.6776 80.8476 49.1081V46.627H78.3042C75.6683 46.627 73.5006 44.6696 73.2449 42.1627H73.2459ZM68.6442 66.4682V69.9415C68.6442 72.1329 66.8239 73.9087 64.5764 73.9087C62.3305 73.9087 60.5086 72.1309 60.5086 69.9415V66.4682H56.9483C54.7018 66.4682 52.8815 64.6925 52.8815 62.5C52.8815 60.309 54.7038 58.5317 56.9483 58.5317H60.5086V55.0585C60.5086 52.8671 62.3289 51.0913 64.5764 51.0913C66.8223 51.0913 68.6442 52.869 68.6442 55.0585V58.5317H72.2045C74.451 58.5317 76.2713 60.3075 76.2713 62.5C76.2713 64.691 74.4489 66.4682 72.2045 66.4682H68.6442Z" fill="#35506F" fill-opacity="0.15"/>
<path fill-rule="evenodd" clip-rule="evenodd" d="M86.4406 178.075C84.1947 178.075 82.3728 176.298 82.3728 174.108V170.635H78.8125C76.5661 170.635 74.7457 168.859 74.7457 166.667H55.4237C55.4237 168.858 53.6013 170.635 51.3569 170.635H47.7966V174.108C47.7966 176.3 45.9762 178.075 43.7287 178.075V196.925C45.9747 196.925 47.7966 198.702 47.7966 200.892V204.365H51.3569C53.6033 204.365 55.4237 206.141 55.4237 208.333H74.7457C74.7457 206.142 76.5681 204.365 78.8125 204.365H82.3728V200.892C82.3728 198.7 84.1932 196.925 86.4406 196.925V178.075ZM73.7542 207.837H65.5932V199.876C68.163 199.628 70.1694 197.513 70.1694 194.941V192.46H72.7128C75.3467 192.46 77.5159 190.502 77.7722 187.996H85.9322V195.957C83.3623 196.205 81.3559 198.32 81.3559 200.892V203.373H78.8125C76.1786 203.373 74.0094 205.331 73.7532 207.837H73.7542ZM56.4152 207.837H64.5762V199.876C62.0069 199.627 60 197.511 60 194.941V192.46H57.4566C54.8206 192.46 52.653 190.503 52.3972 187.996H44.2372V195.957C46.8066 196.206 48.8135 198.322 48.8135 200.892V203.373H51.3569C53.9928 203.373 56.1605 205.33 56.4162 207.837H56.4152ZM56.4152 167.163H64.5762V175.124C62.0064 175.372 60 177.487 60 180.059V182.54H57.4566C54.8227 182.54 52.6535 184.498 52.3972 187.004H44.2372V179.043C46.8071 178.795 48.8135 176.68 48.8135 174.108V171.627H51.3569C53.9908 171.627 56.16 169.669 56.4162 167.163H56.4152ZM73.7542 167.163H65.5932V175.124C68.1625 175.373 70.1694 177.489 70.1694 180.059V182.54H72.7128C75.3488 182.54 77.5164 184.497 77.7722 187.004H85.9322V179.043C83.3628 178.794 81.3559 176.678 81.3559 174.108V171.627H78.8125C76.1766 171.627 74.0089 169.67 73.7532 167.163H73.7542ZM69.1525 191.468V194.941C69.1525 197.133 67.3322 198.909 65.0847 198.909C62.8388 198.909 61.0169 197.131 61.0169 194.941V191.468H57.4566C55.2101 191.468 53.3898 189.692 53.3898 187.5C53.3898 185.309 55.2122 183.532 57.4566 183.532H61.0169V180.059C61.0169 177.867 62.8372 176.091 65.0847 176.091C67.3306 176.091 69.1525 177.869 69.1525 180.059V183.532H72.7128C74.9593 183.532 76.7796 185.308 76.7796 187.5C76.7796 189.691 74.9572 191.468 72.7128 191.468H69.1525Z" fill="#35506F" fill-opacity="0.15"/>
<path fill-rule="evenodd" clip-rule="evenodd" d="M85.9323 94.742C83.6864 94.742 81.8645 92.9643 81.8645 90.7748V87.3016H78.3042C76.0578 87.3016 74.2374 85.5258 74.2374 83.3333H54.9154C54.9154 85.5243 53.093 87.3016 50.8486 87.3016H47.2883V90.7748C47.2883 92.9662 45.4679 94.742 43.2204 94.742V113.591C45.4664 113.591 47.2883 115.369 47.2883 117.559V121.032H50.8486C53.095 121.032 54.9154 122.808 54.9154 125H74.2374C74.2374 122.809 76.0598 121.032 78.3042 121.032H81.8645V117.559C81.8645 115.367 83.6849 113.591 85.9323 113.591V94.742ZM73.2459 124.504H65.0849V116.543C67.6547 116.295 69.6611 114.18 69.6611 111.608V109.127H72.2045C74.8384 109.127 77.0076 107.169 77.2639 104.663H85.4239V112.624C82.854 112.872 80.8476 114.987 80.8476 117.559V120.04H78.3042C75.6703 120.04 73.5011 121.998 73.2449 124.504H73.2459ZM55.9069 124.504H64.0679V116.543C61.4986 116.294 59.4916 114.178 59.4916 111.608V109.127H56.9483C54.3123 109.127 52.1447 107.17 51.8889 104.663H43.7289V112.624C46.2983 112.873 48.3052 114.989 48.3052 117.559V120.04H50.8486C53.4845 120.04 55.6522 121.997 55.9079 124.504H55.9069ZM55.9069 83.8293H64.0679V91.7907C61.4981 92.0387 59.4916 94.1537 59.4916 96.7252V99.2063H56.9483C54.3144 99.2063 52.1452 101.164 51.8889 103.671H43.7289V95.7093C46.2988 95.4613 48.3052 93.3462 48.3052 90.7748V88.2936H50.8486C53.4825 88.2936 55.6516 86.3358 55.9079 83.8293H55.9069ZM73.2459 83.8293H65.0849V91.7907C67.6542 92.0397 69.6611 94.1557 69.6611 96.7252V99.2063H72.2045C74.8405 99.2063 77.0081 101.164 77.2639 103.671H85.4239V95.7093C82.8545 95.4603 80.8476 93.3442 80.8476 90.7748V88.2936H78.3042C75.6683 88.2936 73.5006 86.3363 73.2449 83.8293H73.2459ZM68.6442 108.135V111.608C68.6442 113.8 66.8239 115.575 64.5764 115.575C62.3305 115.575 60.5086 113.798 60.5086 111.608V108.135H56.9483C54.7018 108.135 52.8815 106.359 52.8815 104.167C52.8815 101.976 54.7038 100.198 56.9483 100.198H60.5086V96.7252C60.5086 94.5337 62.3289 92.7579 64.5764 92.7579C66.8223 92.7579 68.6442 94.5357 68.6442 96.7252V100.198H72.2045C74.451 100.198 76.2713 101.974 76.2713 104.167C76.2713 106.358 74.4489 108.135 72.2045 108.135H68.6442Z" fill="#35506F" fill-opacity="0.15"/>
<path fill-rule="evenodd" clip-rule="evenodd" d="M86.4406 219.742C84.1947 219.742 82.3728 217.964 82.3728 215.775V212.302H78.8125C76.5661 212.302 74.7457 210.526 74.7457 208.333H55.4237C55.4237 210.524 53.6013 212.302 51.3569 212.302H47.7966V215.775C47.7966 217.966 45.9762 219.742 43.7287 219.742V238.591C45.9747 238.591 47.7966 240.369 47.7966 242.559V246.032H51.3569C53.6033 246.032 55.4237 247.808 55.4237 250H74.7457C74.7457 247.809 76.5681 246.032 78.8125 246.032H82.3728V242.559C82.3728 240.367 84.1932 238.591 86.4406 238.591V219.742ZM73.7542 249.504H65.5932V241.543C68.163 241.295 70.1694 239.18 70.1694 236.608V234.127H72.7128C75.3467 234.127 77.5159 232.169 77.7722 229.663H85.9322V237.624C83.3623 237.872 81.3559 239.987 81.3559 242.559V245.04H78.8125C76.1786 245.04 74.0094 246.998 73.7532 249.504H73.7542ZM56.4152 249.504H64.5762V241.543C62.0069 241.294 60 239.178 60 236.608V234.127H57.4566C54.8206 234.127 52.653 232.17 52.3972 229.663H44.2372V237.624C46.8066 237.873 48.8135 239.989 48.8135 242.559V245.04H51.3569C53.9928 245.04 56.1605 246.997 56.4162 249.504H56.4152ZM56.4152 208.829H64.5762V216.791C62.0064 217.039 60 219.154 60 221.725V224.206H57.4566C54.8227 224.206 52.6535 226.164 52.3972 228.671H44.2372V220.709C46.8071 220.461 48.8135 218.346 48.8135 215.775V213.294H51.3569C53.9908 213.294 56.16 211.336 56.4162 208.829H56.4152ZM73.7542 208.829H65.5932V216.791C68.1625 217.04 70.1694 219.156 70.1694 221.725V224.206H72.7128C75.3488 224.206 77.5164 226.164 77.7722 228.671H85.9322V220.709C83.3628 220.46 81.3559 218.344 81.3559 215.775V213.294H78.8125C76.1766 213.294 74.0089 211.336 73.7532 208.829H73.7542ZM69.1525 233.135V236.608C69.1525 238.8 67.3322 240.575 65.0847 240.575C62.8388 240.575 61.0169 238.798 61.0169 236.608V233.135H57.4566C55.2101 233.135 53.3898 231.359 53.3898 229.167C53.3898 226.976 55.2122 225.198 57.4566 225.198H61.0169V221.725C61.0169 219.534 62.8372 217.758 65.0847 217.758C67.3306 217.758 69.1525 219.536 69.1525 221.725V225.198H72.7128C74.9593 225.198 76.7796 226.974 76.7796 229.167C76.7796 231.358 74.9572 233.135 72.7128 233.135H69.1525Z" fill="#35506F" fill-opacity="0.15"/>
<path fill-rule="evenodd" clip-rule="evenodd" d="M128.136 11.4087C125.89 11.4087 124.068 9.63095 124.068 7.44147V3.96825H120.508C118.261 3.96825 116.441 2.19246 116.441 0H97.1187C97.1187 2.19097 95.2964 3.96825 93.052 3.96825H89.4916V7.44147C89.4916 9.63294 87.6712 11.4087 85.4238 11.4087V30.2579C87.6697 30.2579 89.4916 32.0357 89.4916 34.2252V37.6984H93.052C95.2984 37.6984 97.1187 39.4742 97.1187 41.6667H116.441C116.441 39.4757 118.263 37.6984 120.508 37.6984H124.068V34.2252C124.068 32.0337 125.888 30.2579 128.136 30.2579V11.4087ZM115.449 41.1706H107.288V33.2093C109.858 32.9613 111.865 30.8462 111.865 28.2748V25.7937H114.408C117.042 25.7937 119.211 23.8358 119.467 21.3294H127.627V29.2907C125.057 29.5387 123.051 31.6538 123.051 34.2252V36.7064H120.508C117.874 36.7064 115.705 38.6642 115.448 41.1706H115.449ZM98.1103 41.1706H106.271V33.2093C103.702 32.9603 101.695 30.8442 101.695 28.2748V25.7937H99.1516C96.5157 25.7937 94.3481 23.8363 94.0923 21.3294H85.9323V29.2907C88.5016 29.5397 90.5086 31.6558 90.5086 34.2252V36.7064H93.052C95.6879 36.7064 97.8555 38.6637 98.1113 41.1706H98.1103ZM98.1103 0.496032H106.271V8.45734C103.701 8.70536 101.695 10.8204 101.695 13.3919V15.873H99.1516C96.5177 15.873 94.3486 17.8309 94.0923 20.3373H85.9323V12.376C88.5021 12.128 90.5086 10.0129 90.5086 7.44147V4.96032H93.052C95.6859 4.96032 97.855 3.00248 98.1113 0.496032H98.1103ZM115.449 0.496032H107.288V8.45734C109.858 8.70635 111.865 10.8224 111.865 13.3919V15.873H114.408C117.044 15.873 119.211 17.8304 119.467 20.3373H127.627V12.376C125.058 12.127 123.051 10.0109 123.051 7.44147V4.96032H120.508C117.872 4.96032 115.704 3.00298 115.448 0.496032H115.449ZM110.848 24.8016V28.2748C110.848 30.4663 109.027 32.2421 106.78 32.2421C104.534 32.2421 102.712 30.4643 102.712 28.2748V24.8016H99.1516C96.9052 24.8016 95.0848 23.0258 95.0848 20.8333C95.0848 18.6424 96.9072 16.8651 99.1516 16.8651H102.712V13.3919C102.712 11.2004 104.532 9.4246 106.78 9.4246C109.026 9.4246 110.848 11.2024 110.848 13.3919V16.8651H114.408C116.654 16.8651 118.475 18.6409 118.475 20.8333C118.475 23.0243 116.652 24.8016 114.408 24.8016H110.848Z" fill="#35506F" fill-opacity="0.15"/>
<path fill-rule="evenodd" clip-rule="evenodd" d="M128.644 136.409C126.398 136.409 124.576 134.631 124.576 132.441V128.968H121.016C118.77 128.968 116.949 127.192 116.949 125H97.6273C97.6273 127.191 95.8049 128.968 93.5605 128.968H90.0002V132.441C90.0002 134.633 88.1798 136.409 85.9323 136.409V155.258C88.1783 155.258 90.0002 157.036 90.0002 159.225V162.698H93.5605C95.8069 162.698 97.6273 164.474 97.6273 166.667H116.949C116.949 164.476 118.772 162.698 121.016 162.698H124.576V159.225C124.576 157.034 126.397 155.258 128.644 155.258V136.409ZM115.958 166.171H107.797V158.209C110.367 157.961 112.373 155.846 112.373 153.275V150.794H114.916C117.55 150.794 119.719 148.836 119.976 146.329H128.136V154.291C125.566 154.539 123.56 156.654 123.56 159.225V161.706H121.016C118.382 161.706 116.213 163.664 115.957 166.171H115.958ZM98.6188 166.171H106.78V158.209C104.211 157.96 102.204 155.844 102.204 153.275V150.794H99.6602C97.0242 150.794 94.8566 148.836 94.6009 146.329H86.4408V154.291C89.0102 154.54 91.0171 156.656 91.0171 159.225V161.706H93.5605C96.1964 161.706 98.3641 163.664 98.6198 166.171H98.6188ZM98.6188 125.496H106.78V133.457C104.21 133.705 102.204 135.82 102.204 138.392V140.873H99.6602C97.0263 140.873 94.8571 142.831 94.6009 145.337H86.4408V137.376C89.0107 137.128 91.0171 135.013 91.0171 132.441V129.96H93.5605C96.1944 129.96 98.3636 128.002 98.6198 125.496H98.6188ZM115.958 125.496H107.797V133.457C110.366 133.706 112.373 135.822 112.373 138.392V140.873H114.916C117.552 140.873 119.72 142.83 119.976 145.337H128.136V137.376C125.566 137.127 123.56 135.011 123.56 132.441V129.96H121.016C118.38 129.96 116.213 128.003 115.957 125.496H115.958ZM111.356 149.802V153.275C111.356 155.466 109.536 157.242 107.288 157.242C105.042 157.242 103.221 155.464 103.221 153.275V149.802H99.6602C97.4137 149.802 95.5934 148.026 95.5934 145.833C95.5934 143.642 97.4158 141.865 99.6602 141.865H103.221V138.392C103.221 136.2 105.041 134.425 107.288 134.425C109.534 134.425 111.356 136.202 111.356 138.392V141.865H114.916C117.163 141.865 118.983 143.641 118.983 145.833C118.983 148.024 117.161 149.802 114.916 149.802H111.356Z" fill="#35506F" fill-opacity="0.15"/>
<path fill-rule="evenodd" clip-rule="evenodd" d="M128.644 53.0754C126.398 53.0754 124.576 51.2976 124.576 49.1081V45.6349H121.016C118.77 45.6349 116.949 43.8591 116.949 41.6667H97.6273C97.6273 43.8576 95.8049 45.6349 93.5605 45.6349H90.0002V49.1081C90.0002 51.2996 88.1798 53.0754 85.9323 53.0754V71.9246C88.1783 71.9246 90.0002 73.7024 90.0002 75.8919V79.3651H93.5605C95.8069 79.3651 97.6273 81.1409 97.6273 83.3333H116.949C116.949 81.1424 118.772 79.3651 121.016 79.3651H124.576V75.8919C124.576 73.7004 126.397 71.9246 128.644 71.9246V53.0754ZM115.958 82.8373H107.797V74.876C110.367 74.628 112.373 72.5129 112.373 69.9415V67.4603H114.916C117.55 67.4603 119.719 65.5025 119.976 62.996H128.136V70.9573C125.566 71.2053 123.56 73.3204 123.56 75.8919V78.373H121.016C118.382 78.373 116.213 80.3308 115.957 82.8373H115.958ZM98.6188 82.8373H106.78V74.876C104.211 74.627 102.204 72.5109 102.204 69.9415V67.4603H99.6602C97.0242 67.4603 94.8566 65.503 94.6009 62.996H86.4408V70.9573C89.0102 71.2063 91.0171 73.3224 91.0171 75.8919V78.373H93.5605C96.1964 78.373 98.3641 80.3304 98.6198 82.8373H98.6188ZM98.6188 42.1627H106.78V50.124C104.21 50.372 102.204 52.4871 102.204 55.0585V57.5397H99.6602C97.0263 57.5397 94.8571 59.4975 94.6009 62.004H86.4408V54.0426C89.0107 53.7946 91.0171 51.6796 91.0171 49.1081V46.627H93.5605C96.1944 46.627 98.3636 44.6691 98.6198 42.1627H98.6188ZM115.958 42.1627H107.797V50.124C110.366 50.373 112.373 52.4891 112.373 55.0585V57.5397H114.916C117.552 57.5397 119.72 59.497 119.976 62.004H128.136V54.0426C125.566 53.7936 123.56 51.6776 123.56 49.1081V46.627H121.016C118.38 46.627 116.213 44.6696 115.957 42.1627H115.958ZM111.356 66.4682V69.9415C111.356 72.1329 109.536 73.9087 107.288 73.9087C105.042 73.9087 103.221 72.1309 103.221 69.9415V66.4682H99.6602C97.4137 66.4682 95.5934 64.6925 95.5934 62.5C95.5934 60.309 97.4158 58.5317 99.6602 58.5317H103.221V55.0585C103.221 52.8671 105.041 51.0913 107.288 51.0913C109.534 51.0913 111.356 52.869 111.356 55.0585V58.5317H114.916C117.163 58.5317 118.983 60.3075 118.983 62.5C118.983 64.691 117.161 66.4682 114.916 66.4682H111.356Z" fill="#35506F" fill-opacity="0.15"/>
<path fill-rule="evenodd" clip-rule="evenodd" d="M129.153 178.075C126.907 178.075 125.085 176.298 125.085 174.108V170.635H121.524C119.278 170.635 117.458 168.859 117.458 166.667H98.1356C98.1356 168.858 96.3132 170.635 94.0688 170.635H90.5085V174.108C90.5085 176.3 88.6881 178.075 86.4406 178.075V196.925C88.6866 196.925 90.5085 198.702 90.5085 200.892V204.365H94.0688C96.3152 204.365 98.1356 206.141 98.1356 208.333H117.458C117.458 206.142 119.28 204.365 121.524 204.365H125.085V200.892C125.085 198.7 126.905 196.925 129.153 196.925V178.075ZM116.466 207.837H108.305V199.876C110.875 199.628 112.881 197.513 112.881 194.941V192.46H115.425C118.059 192.46 120.228 190.502 120.484 187.996H128.644V195.957C126.074 196.205 124.068 198.32 124.068 200.892V203.373H121.524C118.891 203.373 116.721 205.331 116.465 207.837H116.466ZM99.1271 207.837H107.288V199.876C104.719 199.627 102.712 197.511 102.712 194.941V192.46H100.168C97.5325 192.46 95.3649 190.503 95.1092 187.996H86.9492V195.957C89.5185 196.206 91.5254 198.322 91.5254 200.892V203.373H94.0688C96.7047 203.373 98.8724 205.33 99.1281 207.837H99.1271ZM99.1271 167.163H107.288V175.124C104.718 175.372 102.712 177.487 102.712 180.059V182.54H100.168C97.5346 182.54 95.3654 184.498 95.1092 187.004H86.9492V179.043C89.519 178.795 91.5254 176.68 91.5254 174.108V171.627H94.0688C96.7027 171.627 98.8719 169.669 99.1281 167.163H99.1271ZM116.466 167.163H108.305V175.124C110.874 175.373 112.881 177.489 112.881 180.059V182.54H115.425C118.061 182.54 120.228 184.497 120.484 187.004H128.644V179.043C126.075 178.794 124.068 176.678 124.068 174.108V171.627H121.524C118.888 171.627 116.721 169.67 116.465 167.163H116.466ZM111.864 191.468V194.941C111.864 197.133 110.044 198.909 107.797 198.909C105.551 198.909 103.729 197.131 103.729 194.941V191.468H100.168C97.922 191.468 96.1017 189.692 96.1017 187.5C96.1017 185.309 97.9241 183.532 100.168 183.532H103.729V180.059C103.729 177.867 105.549 176.091 107.797 176.091C110.043 176.091 111.864 177.869 111.864 180.059V183.532H115.425C117.671 183.532 119.492 185.308 119.492 187.5C119.492 189.691 117.669 191.468 115.425 191.468H111.864Z" fill="#35506F" fill-opacity="0.15"/>
<path fill-rule="evenodd" clip-rule="evenodd" d="M128.644 94.742C126.398 94.742 124.576 92.9643 124.576 90.7748V87.3016H121.016C118.77 87.3016 116.949 85.5258 116.949 83.3333H97.6273C97.6273 85.5243 95.8049 87.3016 93.5605 87.3016H90.0002V90.7748C90.0002 92.9662 88.1798 94.742 85.9323 94.742V113.591C88.1783 113.591 90.0002 115.369 90.0002 117.559V121.032H93.5605C95.8069 121.032 97.6273 122.808 97.6273 125H116.949C116.949 122.809 118.772 121.032 121.016 121.032H124.576V117.559C124.576 115.367 126.397 113.591 128.644 113.591V94.742ZM115.958 124.504H107.797V116.543C110.367 116.295 112.373 114.18 112.373 111.608V109.127H114.916C117.55 109.127 119.719 107.169 119.976 104.663H128.136V112.624C125.566 112.872 123.56 114.987 123.56 117.559V120.04H121.016C118.382 120.04 116.213 121.998 115.957 124.504H115.958ZM98.6188 124.504H106.78V116.543C104.211 116.294 102.204 114.178 102.204 111.608V109.127H99.6602C97.0242 109.127 94.8566 107.17 94.6009 104.663H86.4408V112.624C89.0102 112.873 91.0171 114.989 91.0171 117.559V120.04H93.5605C96.1964 120.04 98.3641 121.997 98.6198 124.504H98.6188ZM98.6188 83.8293H106.78V91.7907C104.21 92.0387 102.204 94.1537 102.204 96.7252V99.2063H99.6602C97.0263 99.2063 94.8571 101.164 94.6009 103.671H86.4408V95.7093C89.0107 95.4613 91.0171 93.3462 91.0171 90.7748V88.2936H93.5605C96.1944 88.2936 98.3636 86.3358 98.6198 83.8293H98.6188ZM115.958 83.8293H107.797V91.7907C110.366 92.0397 112.373 94.1557 112.373 96.7252V99.2063H114.916C117.552 99.2063 119.72 101.164 119.976 103.671H128.136V95.7093C125.566 95.4603 123.56 93.3442 123.56 90.7748V88.2936H121.016C118.38 88.2936 116.213 86.3363 115.957 83.8293H115.958ZM111.356 108.135V111.608C111.356 113.8 109.536 115.575 107.288 115.575C105.042 115.575 103.221 113.798 103.221 111.608V108.135H99.6602C97.4137 108.135 95.5934 106.359 95.5934 104.167C95.5934 101.976 97.4158 100.198 99.6602 100.198H103.221V96.7252C103.221 94.5337 105.041 92.7579 107.288 92.7579C109.534 92.7579 111.356 94.5357 111.356 96.7252V100.198H114.916C117.163 100.198 118.983 101.974 118.983 104.167C118.983 106.358 117.161 108.135 114.916 108.135H111.356Z" fill="#35506F" fill-opacity="0.15"/>
<path fill-rule="evenodd" clip-rule="evenodd" d="M129.153 219.742C126.907 219.742 125.085 217.964 125.085 215.775V212.302H121.524C119.278 212.302 117.458 210.526 117.458 208.333H98.1356C98.1356 210.524 96.3132 212.302 94.0688 212.302H90.5085V215.775C90.5085 217.966 88.6881 219.742 86.4406 219.742V238.591C88.6866 238.591 90.5085 240.369 90.5085 242.559V246.032H94.0688C96.3152 246.032 98.1356 247.808 98.1356 250H117.458C117.458 247.809 119.28 246.032 121.524 246.032H125.085V242.559C125.085 240.367 126.905 238.591 129.153 238.591V219.742ZM116.466 249.504H108.305V241.543C110.875 241.295 112.881 239.18 112.881 236.608V234.127H115.425C118.059 234.127 120.228 232.169 120.484 229.663H128.644V237.624C126.074 237.872 124.068 239.987 124.068 242.559V245.04H121.524C118.891 245.04 116.721 246.998 116.465 249.504H116.466ZM99.1271 249.504H107.288V241.543C104.719 241.294 102.712 239.178 102.712 236.608V234.127H100.168C97.5325 234.127 95.3649 232.17 95.1092 229.663H86.9492V237.624C89.5185 237.873 91.5254 239.989 91.5254 242.559V245.04H94.0688C96.7047 245.04 98.8724 246.997 99.1281 249.504H99.1271ZM99.1271 208.829H107.288V216.791C104.718 217.039 102.712 219.154 102.712 221.725V224.206H100.168C97.5346 224.206 95.3654 226.164 95.1092 228.671H86.9492V220.709C89.519 220.461 91.5254 218.346 91.5254 215.775V213.294H94.0688C96.7027 213.294 98.8719 211.336 99.1281 208.829H99.1271ZM116.466 208.829H108.305V216.791C110.874 217.04 112.881 219.156 112.881 221.725V224.206H115.425C118.061 224.206 120.228 226.164 120.484 228.671H128.644V220.709C126.075 220.46 124.068 218.344 124.068 215.775V213.294H121.524C118.888 213.294 116.721 211.336 116.465 208.829H116.466ZM111.864 233.135V236.608C111.864 238.8 110.044 240.575 107.797 240.575C105.551 240.575 103.729 238.798 103.729 236.608V233.135H100.168C97.922 233.135 96.1017 231.359 96.1017 229.167C96.1017 226.976 97.9241 225.198 100.168 225.198H103.729V221.725C103.729 219.534 105.549 217.758 107.797 217.758C110.043 217.758 111.864 219.536 111.864 221.725V225.198H115.425C117.671 225.198 119.492 226.974 119.492 229.167C119.492 231.358 117.669 233.135 115.425 233.135H111.864Z" fill="#35506F" fill-opacity="0.15"/>
<path fill-rule="evenodd" clip-rule="evenodd" d="M170.847 11.4087C168.601 11.4087 166.78 9.63095 166.78 7.44147V3.96825H163.219C160.973 3.96825 159.152 2.19246 159.152 0H139.83C139.83 2.19097 138.008 3.96825 135.764 3.96825H132.203V7.44147C132.203 9.63294 130.383 11.4087 128.136 11.4087V30.2579C130.382 30.2579 132.203 32.0357 132.203 34.2252V37.6984H135.764C138.01 37.6984 139.83 39.4742 139.83 41.6667H159.152C159.152 39.4757 160.975 37.6984 163.219 37.6984H166.78V34.2252C166.78 32.0337 168.6 30.2579 170.847 30.2579V11.4087ZM158.161 41.1706H150V33.2093C152.57 32.9613 154.576 30.8462 154.576 28.2748V25.7937H157.12C159.753 25.7937 161.923 23.8358 162.179 21.3294H170.339V29.2907C167.769 29.5387 165.763 31.6538 165.763 34.2252V36.7064H163.219C160.585 36.7064 158.416 38.6642 158.16 41.1706H158.161ZM140.822 41.1706H148.983V33.2093C146.414 32.9603 144.407 30.8442 144.407 28.2748V25.7937H141.863C139.227 25.7937 137.06 23.8363 136.804 21.3294H128.644V29.2907C131.213 29.5397 133.22 31.6558 133.22 34.2252V36.7064H135.764C138.4 36.7064 140.567 38.6637 140.823 41.1706H140.822ZM140.822 0.496032H148.983V8.45734C146.413 8.70536 144.407 10.8204 144.407 13.3919V15.873H141.863C139.229 15.873 137.06 17.8309 136.804 20.3373H128.644V12.376C131.214 12.128 133.22 10.0129 133.22 7.44147V4.96032H135.764C138.398 4.96032 140.567 3.00248 140.823 0.496032H140.822ZM158.161 0.496032H150V8.45734C152.569 8.70635 154.576 10.8224 154.576 13.3919V15.873H157.12C159.755 15.873 161.923 17.8304 162.179 20.3373H170.339V12.376C167.77 12.127 165.763 10.0109 165.763 7.44147V4.96032H163.219C160.583 4.96032 158.416 3.00298 158.16 0.496032H158.161ZM153.559 24.8016V28.2748C153.559 30.4663 151.739 32.2421 149.491 32.2421C147.246 32.2421 145.424 30.4643 145.424 28.2748V24.8016H141.863C139.617 24.8016 137.797 23.0258 137.797 20.8333C137.797 18.6424 139.619 16.8651 141.863 16.8651H145.424V13.3919C145.424 11.2004 147.244 9.4246 149.491 9.4246C151.737 9.4246 153.559 11.2024 153.559 13.3919V16.8651H157.12C159.366 16.8651 161.186 18.6409 161.186 20.8333C161.186 23.0243 159.364 24.8016 157.12 24.8016H153.559Z" fill="#35506F" fill-opacity="0.15"/>
<path fill-rule="evenodd" clip-rule="evenodd" d="M171.356 136.409C169.11 136.409 167.288 134.631 167.288 132.441V128.968H163.728C161.481 128.968 159.661 127.192 159.661 125H140.339C140.339 127.191 138.517 128.968 136.272 128.968H132.712V132.441C132.712 134.633 130.892 136.409 128.644 136.409V155.258C130.89 155.258 132.712 157.036 132.712 159.225V162.698H136.272C138.519 162.698 140.339 164.474 140.339 166.667H159.661C159.661 164.476 161.483 162.698 163.728 162.698H167.288V159.225C167.288 157.034 169.108 155.258 171.356 155.258V136.409ZM158.669 166.171H150.508V158.209C153.078 157.961 155.085 155.846 155.085 153.275V150.794H157.628C160.262 150.794 162.431 148.836 162.687 146.329H170.847V154.291C168.278 154.539 166.271 156.654 166.271 159.225V161.706H163.728C161.094 161.706 158.925 163.664 158.668 166.171H158.669ZM141.33 166.171H149.492V158.209C146.922 157.96 144.915 155.844 144.915 153.275V150.794H142.372C139.736 150.794 137.568 148.836 137.313 146.329H129.153V154.291C131.722 154.54 133.729 156.656 133.729 159.225V161.706H136.272C138.908 161.706 141.076 163.664 141.331 166.171H141.33ZM141.33 125.496H149.492V133.457C146.922 133.705 144.915 135.82 144.915 138.392V140.873H142.372C139.738 140.873 137.569 142.831 137.313 145.337H129.153V137.376C131.722 137.128 133.729 135.013 133.729 132.441V129.96H136.272C138.906 129.96 141.075 128.002 141.331 125.496H141.33ZM158.669 125.496H150.508V133.457C153.078 133.706 155.085 135.822 155.085 138.392V140.873H157.628C160.264 140.873 162.432 142.83 162.687 145.337H170.847V137.376C168.278 137.127 166.271 135.011 166.271 132.441V129.96H163.728C161.092 129.96 158.924 128.003 158.668 125.496H158.669ZM154.068 149.802V153.275C154.068 155.466 152.247 157.242 150 157.242C147.754 157.242 145.932 155.464 145.932 153.275V149.802H142.372C140.125 149.802 138.305 148.026 138.305 145.833C138.305 143.642 140.127 141.865 142.372 141.865H145.932V138.392C145.932 136.2 147.753 134.425 150 134.425C152.246 134.425 154.068 136.202 154.068 138.392V141.865H157.628C159.875 141.865 161.695 143.641 161.695 145.833C161.695 148.024 159.873 149.802 157.628 149.802H154.068Z" fill="#35506F" fill-opacity="0.15"/>
<path fill-rule="evenodd" clip-rule="evenodd" d="M171.356 53.0754C169.11 53.0754 167.288 51.2976 167.288 49.1081V45.6349H163.728C161.481 45.6349 159.661 43.8591 159.661 41.6667H140.339C140.339 43.8576 138.517 45.6349 136.272 45.6349H132.712V49.1081C132.712 51.2996 130.892 53.0754 128.644 53.0754V71.9246C130.89 71.9246 132.712 73.7024 132.712 75.8919V79.3651H136.272C138.519 79.3651 140.339 81.1409 140.339 83.3333H159.661C159.661 81.1424 161.483 79.3651 163.728 79.3651H167.288V75.8919C167.288 73.7004 169.108 71.9246 171.356 71.9246V53.0754ZM158.669 82.8373H150.508V74.876C153.078 74.628 155.085 72.5129 155.085 69.9415V67.4603H157.628C160.262 67.4603 162.431 65.5025 162.687 62.996H170.847V70.9573C168.278 71.2053 166.271 73.3204 166.271 75.8919V78.373H163.728C161.094 78.373 158.925 80.3308 158.668 82.8373H158.669ZM141.33 82.8373H149.492V74.876C146.922 74.627 144.915 72.5109 144.915 69.9415V67.4603H142.372C139.736 67.4603 137.568 65.503 137.313 62.996H129.153V70.9573C131.722 71.2063 133.729 73.3224 133.729 75.8919V78.373H136.272C138.908 78.373 141.076 80.3304 141.331 82.8373H141.33ZM141.33 42.1627H149.492V50.124C146.922 50.372 144.915 52.4871 144.915 55.0585V57.5397H142.372C139.738 57.5397 137.569 59.4975 137.313 62.004H129.153V54.0426C131.722 53.7946 133.729 51.6796 133.729 49.1081V46.627H136.272C138.906 46.627 141.075 44.6691 141.331 42.1627H141.33ZM158.669 42.1627H150.508V50.124C153.078 50.373 155.085 52.4891 155.085 55.0585V57.5397H157.628C160.264 57.5397 162.432 59.497 162.687 62.004H170.847V54.0426C168.278 53.7936 166.271 51.6776 166.271 49.1081V46.627H163.728C161.092 46.627 158.924 44.6696 158.668 42.1627H158.669ZM154.068 66.4682V69.9415C154.068 72.1329 152.247 73.9087 150 73.9087C147.754 73.9087 145.932 72.1309 145.932 69.9415V66.4682H142.372C140.125 66.4682 138.305 64.6925 138.305 62.5C138.305 60.309 140.127 58.5317 142.372 58.5317H145.932V55.0585C145.932 52.8671 147.753 51.0913 150 51.0913C152.246 51.0913 154.068 52.869 154.068 55.0585V58.5317H157.628C159.875 58.5317 161.695 60.3075 161.695 62.5C161.695 64.691 159.873 66.4682 157.628 66.4682H154.068Z" fill="#35506F" fill-opacity="0.15"/>
<path fill-rule="evenodd" clip-rule="evenodd" d="M171.864 178.075C169.618 178.075 167.796 176.298 167.796 174.108V170.635H164.236C161.99 170.635 160.169 168.859 160.169 166.667H140.847C140.847 168.858 139.025 170.635 136.78 170.635H133.22V174.108C133.22 176.3 131.4 178.075 129.153 178.075V196.925C131.398 196.925 133.22 198.702 133.22 200.892V204.365H136.78C139.027 204.365 140.847 206.141 140.847 208.333H160.169C160.169 206.142 161.992 204.365 164.236 204.365H167.796V200.892C167.796 198.7 169.617 196.925 171.864 196.925V178.075ZM159.178 207.837H151.017V199.876C153.587 199.628 155.593 197.513 155.593 194.941V192.46H158.136C160.77 192.46 162.939 190.502 163.196 187.996H171.356V195.957C168.786 196.205 166.779 198.32 166.779 200.892V203.373H164.236C161.602 203.373 159.433 205.331 159.177 207.837H159.178ZM141.839 207.837H150V199.876C147.43 199.627 145.424 197.511 145.424 194.941V192.46H142.88C140.244 192.46 138.077 190.503 137.821 187.996H129.661V195.957C132.23 196.206 134.237 198.322 134.237 200.892V203.373H136.78C139.416 203.373 141.584 205.33 141.84 207.837H141.839ZM141.839 167.163H150V175.124C147.43 175.372 145.424 177.487 145.424 180.059V182.54H142.88C140.246 182.54 138.077 184.498 137.821 187.004H129.661V179.043C132.231 178.795 134.237 176.68 134.237 174.108V171.627H136.78C139.414 171.627 141.584 169.669 141.84 167.163H141.839ZM159.178 167.163H151.017V175.124C153.586 175.373 155.593 177.489 155.593 180.059V182.54H158.136C160.772 182.54 162.94 184.497 163.196 187.004H171.356V179.043C168.786 178.794 166.779 176.678 166.779 174.108V171.627H164.236C161.6 171.627 159.433 169.67 159.177 167.163H159.178ZM154.576 191.468V194.941C154.576 197.133 152.756 198.909 150.508 198.909C148.262 198.909 146.44 197.131 146.44 194.941V191.468H142.88C140.634 191.468 138.813 189.692 138.813 187.5C138.813 185.309 140.636 183.532 142.88 183.532H146.44V180.059C146.44 177.867 148.261 176.091 150.508 176.091C152.754 176.091 154.576 177.869 154.576 180.059V183.532H158.136C160.383 183.532 162.203 185.308 162.203 187.5C162.203 189.691 160.381 191.468 158.136 191.468H154.576Z" fill="#35506F" fill-opacity="0.15"/>
<path fill-rule="evenodd" clip-rule="evenodd" d="M171.356 94.742C169.11 94.742 167.288 92.9643 167.288 90.7748V87.3016H163.728C161.481 87.3016 159.661 85.5258 159.661 83.3333H140.339C140.339 85.5243 138.517 87.3016 136.272 87.3016H132.712V90.7748C132.712 92.9662 130.892 94.742 128.644 94.742V113.591C130.89 113.591 132.712 115.369 132.712 117.559V121.032H136.272C138.519 121.032 140.339 122.808 140.339 125H159.661C159.661 122.809 161.483 121.032 163.728 121.032H167.288V117.559C167.288 115.367 169.108 113.591 171.356 113.591V94.742ZM158.669 124.504H150.508V116.543C153.078 116.295 155.085 114.18 155.085 111.608V109.127H157.628C160.262 109.127 162.431 107.169 162.687 104.663H170.847V112.624C168.278 112.872 166.271 114.987 166.271 117.559V120.04H163.728C161.094 120.04 158.925 121.998 158.668 124.504H158.669ZM141.33 124.504H149.492V116.543C146.922 116.294 144.915 114.178 144.915 111.608V109.127H142.372C139.736 109.127 137.568 107.17 137.313 104.663H129.153V112.624C131.722 112.873 133.729 114.989 133.729 117.559V120.04H136.272C138.908 120.04 141.076 121.997 141.331 124.504H141.33ZM141.33 83.8293H149.492V91.7907C146.922 92.0387 144.915 94.1537 144.915 96.7252V99.2063H142.372C139.738 99.2063 137.569 101.164 137.313 103.671H129.153V95.7093C131.722 95.4613 133.729 93.3462 133.729 90.7748V88.2936H136.272C138.906 88.2936 141.075 86.3358 141.331 83.8293H141.33ZM158.669 83.8293H150.508V91.7907C153.078 92.0397 155.085 94.1557 155.085 96.7252V99.2063H157.628C160.264 99.2063 162.432 101.164 162.687 103.671H170.847V95.7093C168.278 95.4603 166.271 93.3442 166.271 90.7748V88.2936H163.728C161.092 88.2936 158.924 86.3363 158.668 83.8293H158.669ZM154.068 108.135V111.608C154.068 113.8 152.247 115.575 150 115.575C147.754 115.575 145.932 113.798 145.932 111.608V108.135H142.372C140.125 108.135 138.305 106.359 138.305 104.167C138.305 101.976 140.127 100.198 142.372 100.198H145.932V96.7252C145.932 94.5337 147.753 92.7579 150 92.7579C152.246 92.7579 154.068 94.5357 154.068 96.7252V100.198H157.628C159.875 100.198 161.695 101.974 161.695 104.167C161.695 106.358 159.873 108.135 157.628 108.135H154.068Z" fill="#35506F" fill-opacity="0.15"/>
<path fill-rule="evenodd" clip-rule="evenodd" d="M171.864 219.742C169.618 219.742 167.796 217.964 167.796 215.775V212.302H164.236C161.99 212.302 160.169 210.526 160.169 208.333H140.847C140.847 210.524 139.025 212.302 136.78 212.302H133.22V215.775C133.22 217.966 131.4 219.742 129.153 219.742V238.591C131.398 238.591 133.22 240.369 133.22 242.559V246.032H136.78C139.027 246.032 140.847 247.808 140.847 250H160.169C160.169 247.809 161.992 246.032 164.236 246.032H167.796V242.559C167.796 240.367 169.617 238.591 171.864 238.591V219.742ZM159.178 249.504H151.017V241.543C153.587 241.295 155.593 239.18 155.593 236.608V234.127H158.136C160.77 234.127 162.939 232.169 163.196 229.663H171.356V237.624C168.786 237.872 166.779 239.987 166.779 242.559V245.04H164.236C161.602 245.04 159.433 246.998 159.177 249.504H159.178ZM141.839 249.504H150V241.543C147.43 241.294 145.424 239.178 145.424 236.608V234.127H142.88C140.244 234.127 138.077 232.17 137.821 229.663H129.661V237.624C132.23 237.873 134.237 239.989 134.237 242.559V245.04H136.78C139.416 245.04 141.584 246.997 141.84 249.504H141.839ZM141.839 208.829H150V216.791C147.43 217.039 145.424 219.154 145.424 221.725V224.206H142.88C140.246 224.206 138.077 226.164 137.821 228.671H129.661V220.709C132.231 220.461 134.237 218.346 134.237 215.775V213.294H136.78C139.414 213.294 141.584 211.336 141.84 208.829H141.839ZM159.178 208.829H151.017V216.791C153.586 217.04 155.593 219.156 155.593 221.725V224.206H158.136C160.772 224.206 162.94 226.164 163.196 228.671H171.356V220.709C168.786 220.46 166.779 218.344 166.779 215.775V213.294H164.236C161.6 213.294 159.433 211.336 159.177 208.829H159.178ZM154.576 233.135V236.608C154.576 238.8 152.756 240.575 150.508 240.575C148.262 240.575 146.44 238.798 146.44 236.608V233.135H142.88C140.634 233.135 138.813 231.359 138.813 229.167C138.813 226.976 140.636 225.198 142.88 225.198H146.44V221.725C146.44 219.534 148.261 217.758 150.508 217.758C152.754 217.758 154.576 219.536 154.576 221.725V225.198H158.136C160.383 225.198 162.203 226.974 162.203 229.167C162.203 231.358 160.381 233.135 158.136 233.135H154.576Z" fill="#35506F" fill-opacity="0.15"/>
<path fill-rule="evenodd" clip-rule="evenodd" d="M213.56 11.4087C211.314 11.4087 209.492 9.63095 209.492 7.44147V3.96825H205.931C203.685 3.96825 201.865 2.19246 201.865 0H182.543C182.543 2.19097 180.72 3.96825 178.476 3.96825H174.915V7.44147C174.915 9.63294 173.095 11.4087 170.847 11.4087V30.2579C173.093 30.2579 174.915 32.0357 174.915 34.2252V37.6984H178.476C180.722 37.6984 182.543 39.4742 182.543 41.6667H201.865C201.865 39.4757 203.687 37.6984 205.931 37.6984H209.492V34.2252C209.492 32.0337 211.312 30.2579 213.56 30.2579V11.4087ZM200.873 41.1706H192.712V33.2093C195.282 32.9613 197.288 30.8462 197.288 28.2748V25.7937H199.832C202.466 25.7937 204.635 23.8358 204.891 21.3294H213.051V29.2907C210.481 29.5387 208.475 31.6538 208.475 34.2252V36.7064H205.931C203.298 36.7064 201.128 38.6642 200.872 41.1706H200.873ZM183.534 41.1706H191.695V33.2093C189.126 32.9603 187.119 30.8442 187.119 28.2748V25.7937H184.575C181.94 25.7937 179.772 23.8363 179.516 21.3294H171.356V29.2907C173.925 29.5397 175.932 31.6558 175.932 34.2252V36.7064H178.476C181.112 36.7064 183.279 38.6637 183.535 41.1706H183.534ZM183.534 0.496032H191.695V8.45734C189.125 8.70536 187.119 10.8204 187.119 13.3919V15.873H184.575C181.942 15.873 179.772 17.8309 179.516 20.3373H171.356V12.376C173.926 12.128 175.932 10.0129 175.932 7.44147V4.96032H178.476C181.11 4.96032 183.279 3.00248 183.535 0.496032H183.534ZM200.873 0.496032H192.712V8.45734C195.281 8.70635 197.288 10.8224 197.288 13.3919V15.873H199.832C202.468 15.873 204.635 17.8304 204.891 20.3373H213.051V12.376C210.482 12.127 208.475 10.0109 208.475 7.44147V4.96032H205.931C203.295 4.96032 201.128 3.00298 200.872 0.496032H200.873ZM196.271 24.8016V28.2748C196.271 30.4663 194.451 32.2421 192.204 32.2421C189.958 32.2421 188.136 30.4643 188.136 28.2748V24.8016H184.575C182.329 24.8016 180.509 23.0258 180.509 20.8333C180.509 18.6424 182.331 16.8651 184.575 16.8651H188.136V13.3919C188.136 11.2004 189.956 9.4246 192.204 9.4246C194.45 9.4246 196.271 11.2024 196.271 13.3919V16.8651H199.832C202.078 16.8651 203.899 18.6409 203.899 20.8333C203.899 23.0243 202.076 24.8016 199.832 24.8016H196.271Z" fill="#35506F" fill-opacity="0.15"/>
<path fill-rule="evenodd" clip-rule="evenodd" d="M214.068 136.409C211.822 136.409 210 134.631 210 132.441V128.968H206.44C204.193 128.968 202.373 127.192 202.373 125H183.051C183.051 127.191 181.229 128.968 178.984 128.968H175.424V132.441C175.424 134.633 173.603 136.409 171.356 136.409V155.258C173.602 155.258 175.424 157.036 175.424 159.225V162.698H178.984C181.231 162.698 183.051 164.474 183.051 166.667H202.373C202.373 164.476 204.195 162.698 206.44 162.698H210V159.225C210 157.034 211.82 155.258 214.068 155.258V136.409ZM201.381 166.171H193.22V158.209C195.79 157.961 197.797 155.846 197.797 153.275V150.794H200.34C202.974 150.794 205.143 148.836 205.399 146.329H213.559V154.291C210.99 154.539 208.983 156.654 208.983 159.225V161.706H206.44C203.806 161.706 201.637 163.664 201.38 166.171H201.381ZM184.042 166.171H192.203V158.209C189.634 157.96 187.627 155.844 187.627 153.275V150.794H185.084C182.448 150.794 180.28 148.836 180.024 146.329H171.864V154.291C174.434 154.54 176.441 156.656 176.441 159.225V161.706H178.984C181.62 161.706 183.788 163.664 184.043 166.171H184.042ZM184.042 125.496H192.203V133.457C189.634 133.705 187.627 135.82 187.627 138.392V140.873H185.084C182.45 140.873 180.281 142.831 180.024 145.337H171.864V137.376C174.434 137.128 176.441 135.013 176.441 132.441V129.96H178.984C181.618 129.96 183.787 128.002 184.043 125.496H184.042ZM201.381 125.496H193.22V133.457C195.79 133.706 197.797 135.822 197.797 138.392V140.873H200.34C202.976 140.873 205.144 142.83 205.399 145.337H213.559V137.376C210.99 137.127 208.983 135.011 208.983 132.441V129.96H206.44C203.804 129.96 201.636 128.003 201.38 125.496H201.381ZM196.78 149.802V153.275C196.78 155.466 194.959 157.242 192.712 157.242C190.466 157.242 188.644 155.464 188.644 153.275V149.802H185.084C182.837 149.802 181.017 148.026 181.017 145.833C181.017 143.642 182.839 141.865 185.084 141.865H188.644V138.392C188.644 136.2 190.464 134.425 192.712 134.425C194.958 134.425 196.78 136.202 196.78 138.392V141.865H200.34C202.586 141.865 204.407 143.641 204.407 145.833C204.407 148.024 202.584 149.802 200.34 149.802H196.78Z" fill="#35506F" fill-opacity="0.15"/>
<path fill-rule="evenodd" clip-rule="evenodd" d="M214.068 53.0754C211.822 53.0754 210 51.2976 210 49.1081V45.6349H206.44C204.193 45.6349 202.373 43.8591 202.373 41.6667H183.051C183.051 43.8576 181.229 45.6349 178.984 45.6349H175.424V49.1081C175.424 51.2996 173.603 53.0754 171.356 53.0754V71.9246C173.602 71.9246 175.424 73.7024 175.424 75.8919V79.3651H178.984C181.231 79.3651 183.051 81.1409 183.051 83.3333H202.373C202.373 81.1424 204.195 79.3651 206.44 79.3651H210V75.8919C210 73.7004 211.82 71.9246 214.068 71.9246V53.0754ZM201.381 82.8373H193.22V74.876C195.79 74.628 197.797 72.5129 197.797 69.9415V67.4603H200.34C202.974 67.4603 205.143 65.5025 205.399 62.996H213.559V70.9573C210.99 71.2053 208.983 73.3204 208.983 75.8919V78.373H206.44C203.806 78.373 201.637 80.3308 201.38 82.8373H201.381ZM184.042 82.8373H192.203V74.876C189.634 74.627 187.627 72.5109 187.627 69.9415V67.4603H185.084C182.448 67.4603 180.28 65.503 180.024 62.996H171.864V70.9573C174.434 71.2063 176.441 73.3224 176.441 75.8919V78.373H178.984C181.62 78.373 183.788 80.3304 184.043 82.8373H184.042ZM184.042 42.1627H192.203V50.124C189.634 50.372 187.627 52.4871 187.627 55.0585V57.5397H185.084C182.45 57.5397 180.281 59.4975 180.024 62.004H171.864V54.0426C174.434 53.7946 176.441 51.6796 176.441 49.1081V46.627H178.984C181.618 46.627 183.787 44.6691 184.043 42.1627H184.042ZM201.381 42.1627H193.22V50.124C195.79 50.373 197.797 52.4891 197.797 55.0585V57.5397H200.34C202.976 57.5397 205.144 59.497 205.399 62.004H213.559V54.0426C210.99 53.7936 208.983 51.6776 208.983 49.1081V46.627H206.44C203.804 46.627 201.636 44.6696 201.38 42.1627H201.381ZM196.78 66.4682V69.9415C196.78 72.1329 194.959 73.9087 192.712 73.9087C190.466 73.9087 188.644 72.1309 188.644 69.9415V66.4682H185.084C182.837 66.4682 181.017 64.6925 181.017 62.5C181.017 60.309 182.839 58.5317 185.084 58.5317H188.644V55.0585C188.644 52.8671 190.464 51.0913 192.712 51.0913C194.958 51.0913 196.78 52.869 196.78 55.0585V58.5317H200.34C202.586 58.5317 204.407 60.3075 204.407 62.5C204.407 64.691 202.584 66.4682 200.34 66.4682H196.78Z" fill="#35506F" fill-opacity="0.15"/>
<path fill-rule="evenodd" clip-rule="evenodd" d="M214.576 178.075C212.33 178.075 210.509 176.298 210.509 174.108V170.635H206.948C204.702 170.635 202.881 168.859 202.881 166.667H183.559C183.559 168.858 181.737 170.635 179.493 170.635H175.932V174.108C175.932 176.3 174.112 178.075 171.864 178.075V196.925C174.11 196.925 175.932 198.702 175.932 200.892V204.365H179.493C181.739 204.365 183.559 206.141 183.559 208.333H202.881C202.881 206.142 204.704 204.365 206.948 204.365H210.509V200.892C210.509 198.7 212.329 196.925 214.576 196.925V178.075ZM201.89 207.837H193.729V199.876C196.299 199.628 198.305 197.513 198.305 194.941V192.46H200.849C203.482 192.46 205.652 190.502 205.908 187.996H214.068V195.957C211.498 196.205 209.492 198.32 209.492 200.892V203.373H206.948C204.314 203.373 202.145 205.331 201.889 207.837H201.89ZM184.551 207.837H192.712V199.876C190.143 199.627 188.136 197.511 188.136 194.941V192.46H185.592C182.956 192.46 180.789 190.503 180.533 187.996H172.373V195.957C174.942 196.206 176.949 198.322 176.949 200.892V203.373H179.493C182.129 203.373 184.296 205.33 184.552 207.837H184.551ZM184.551 167.163H192.712V175.124C190.142 175.372 188.136 177.487 188.136 180.059V182.54H185.592C182.958 182.54 180.789 184.498 180.533 187.004H172.373V179.043C174.943 178.795 176.949 176.68 176.949 174.108V171.627H179.493C182.127 171.627 184.296 169.669 184.552 167.163H184.551ZM201.89 167.163H193.729V175.124C196.298 175.373 198.305 177.489 198.305 180.059V182.54H200.849C203.484 182.54 205.652 184.497 205.908 187.004H214.068V179.043C211.499 178.794 209.492 176.678 209.492 174.108V171.627H206.948C204.312 171.627 202.145 169.67 201.889 167.163H201.89ZM197.288 191.468V194.941C197.288 197.133 195.468 198.909 193.22 198.909C190.975 198.909 189.153 197.131 189.153 194.941V191.468H185.592C183.346 191.468 181.526 189.692 181.526 187.5C181.526 185.309 183.348 183.532 185.592 183.532H189.153V180.059C189.153 177.867 190.973 176.091 193.22 176.091C195.466 176.091 197.288 177.869 197.288 180.059V183.532H200.849C203.095 183.532 204.915 185.308 204.915 187.5C204.915 189.691 203.093 191.468 200.849 191.468H197.288Z" fill="#35506F" fill-opacity="0.15"/>
<path fill-rule="evenodd" clip-rule="evenodd" d="M214.068 94.742C211.822 94.742 210 92.9643 210 90.7748V87.3016H206.44C204.193 87.3016 202.373 85.5258 202.373 83.3333H183.051C183.051 85.5243 181.229 87.3016 178.984 87.3016H175.424V90.7748C175.424 92.9662 173.603 94.742 171.356 94.742V113.591C173.602 113.591 175.424 115.369 175.424 117.559V121.032H178.984C181.231 121.032 183.051 122.808 183.051 125H202.373C202.373 122.809 204.195 121.032 206.44 121.032H210V117.559C210 115.367 211.82 113.591 214.068 113.591V94.742ZM201.381 124.504H193.22V116.543C195.79 116.295 197.797 114.18 197.797 111.608V109.127H200.34C202.974 109.127 205.143 107.169 205.399 104.663H213.559V112.624C210.99 112.872 208.983 114.987 208.983 117.559V120.04H206.44C203.806 120.04 201.637 121.998 201.38 124.504H201.381ZM184.042 124.504H192.203V116.543C189.634 116.294 187.627 114.178 187.627 111.608V109.127H185.084C182.448 109.127 180.28 107.17 180.024 104.663H171.864V112.624C174.434 112.873 176.441 114.989 176.441 117.559V120.04H178.984C181.62 120.04 183.788 121.997 184.043 124.504H184.042ZM184.042 83.8293H192.203V91.7907C189.634 92.0387 187.627 94.1537 187.627 96.7252V99.2063H185.084C182.45 99.2063 180.281 101.164 180.024 103.671H171.864V95.7093C174.434 95.4613 176.441 93.3462 176.441 90.7748V88.2936H178.984C181.618 88.2936 183.787 86.3358 184.043 83.8293H184.042ZM201.381 83.8293H193.22V91.7907C195.79 92.0397 197.797 94.1557 197.797 96.7252V99.2063H200.34C202.976 99.2063 205.144 101.164 205.399 103.671H213.559V95.7093C210.99 95.4603 208.983 93.3442 208.983 90.7748V88.2936H206.44C203.804 88.2936 201.636 86.3363 201.38 83.8293H201.381ZM196.78 108.135V111.608C196.78 113.8 194.959 115.575 192.712 115.575C190.466 115.575 188.644 113.798 188.644 111.608V108.135H185.084C182.837 108.135 181.017 106.359 181.017 104.167C181.017 101.976 182.839 100.198 185.084 100.198H188.644V96.7252C188.644 94.5337 190.464 92.7579 192.712 92.7579C194.958 92.7579 196.78 94.5357 196.78 96.7252V100.198H200.34C202.586 100.198 204.407 101.974 204.407 104.167C204.407 106.358 202.584 108.135 200.34 108.135H196.78Z" fill="#35506F" fill-opacity="0.15"/>
<path fill-rule="evenodd" clip-rule="evenodd" d="M214.576 219.742C212.33 219.742 210.509 217.964 210.509 215.775V212.302H206.948C204.702 212.302 202.881 210.526 202.881 208.333H183.559C183.559 210.524 181.737 212.302 179.493 212.302H175.932V215.775C175.932 217.966 174.112 219.742 171.864 219.742V238.591C174.11 238.591 175.932 240.369 175.932 242.559V246.032H179.493C181.739 246.032 183.559 247.808 183.559 250H202.881C202.881 247.809 204.704 246.032 206.948 246.032H210.509V242.559C210.509 240.367 212.329 238.591 214.576 238.591V219.742ZM201.89 249.504H193.729V241.543C196.299 241.295 198.305 239.18 198.305 236.608V234.127H200.849C203.482 234.127 205.652 232.169 205.908 229.663H214.068V237.624C211.498 237.872 209.492 239.987 209.492 242.559V245.04H206.948C204.314 245.04 202.145 246.998 201.889 249.504H201.89ZM184.551 249.504H192.712V241.543C190.143 241.294 188.136 239.178 188.136 236.608V234.127H185.592C182.956 234.127 180.789 232.17 180.533 229.663H172.373V237.624C174.942 237.873 176.949 239.989 176.949 242.559V245.04H179.493C182.129 245.04 184.296 246.997 184.552 249.504H184.551ZM184.551 208.829H192.712V216.791C190.142 217.039 188.136 219.154 188.136 221.725V224.206H185.592C182.958 224.206 180.789 226.164 180.533 228.671H172.373V220.709C174.943 220.461 176.949 218.346 176.949 215.775V213.294H179.493C182.127 213.294 184.296 211.336 184.552 208.829H184.551ZM201.89 208.829H193.729V216.791C196.298 217.04 198.305 219.156 198.305 221.725V224.206H200.849C203.484 224.206 205.652 226.164 205.908 228.671H214.068V220.709C211.499 220.46 209.492 218.344 209.492 215.775V213.294H206.948C204.312 213.294 202.145 211.336 201.889 208.829H201.89ZM197.288 233.135V236.608C197.288 238.8 195.468 240.575 193.22 240.575C190.975 240.575 189.153 238.798 189.153 236.608V233.135H185.592C183.346 233.135 181.526 231.359 181.526 229.167C181.526 226.976 183.348 225.198 185.592 225.198H189.153V221.725C189.153 219.534 190.973 217.758 193.22 217.758C195.466 217.758 197.288 219.536 197.288 221.725V225.198H200.849C203.095 225.198 204.915 226.974 204.915 229.167C204.915 231.358 203.093 233.135 200.849 233.135H197.288Z" fill="#35506F" fill-opacity="0.15"/>
<path fill-rule="evenodd" clip-rule="evenodd" d="M256.271 11.4087C254.026 11.4087 252.204 9.63095 252.204 7.44147V3.96825H248.643C246.397 3.96825 244.577 2.19246 244.577 0H225.254C225.254 2.19097 223.432 3.96825 221.188 3.96825H217.627V7.44147C217.627 9.63294 215.807 11.4087 213.56 11.4087V30.2579C215.805 30.2579 217.627 32.0357 217.627 34.2252V37.6984H221.188C223.434 37.6984 225.254 39.4742 225.254 41.6667H244.577C244.577 39.4757 246.399 37.6984 248.643 37.6984H252.204V34.2252C252.204 32.0337 254.024 30.2579 256.271 30.2579V11.4087ZM243.585 41.1706H235.424V33.2093C237.994 32.9613 240 30.8462 240 28.2748V25.7937H242.544C245.178 25.7937 247.347 23.8358 247.603 21.3294H255.763V29.2907C253.193 29.5387 251.187 31.6538 251.187 34.2252V36.7064H248.643C246.009 36.7064 243.84 38.6642 243.584 41.1706H243.585ZM226.246 41.1706H234.407V33.2093C231.838 32.9603 229.831 30.8442 229.831 28.2748V25.7937H227.287C224.651 25.7937 222.484 23.8363 222.228 21.3294H214.068V29.2907C216.637 29.5397 218.644 31.6558 218.644 34.2252V36.7064H221.188C223.824 36.7064 225.991 38.6637 226.247 41.1706H226.246ZM226.246 0.496032H234.407V8.45734C231.837 8.70536 229.831 10.8204 229.831 13.3919V15.873H227.287C224.653 15.873 222.484 17.8309 222.228 20.3373H214.068V12.376C216.638 12.128 218.644 10.0129 218.644 7.44147V4.96032H221.188C223.822 4.96032 225.991 3.00248 226.247 0.496032H226.246ZM243.585 0.496032H235.424V8.45734C237.993 8.70635 240 10.8224 240 13.3919V15.873H242.544C245.18 15.873 247.347 17.8304 247.603 20.3373H255.763V12.376C253.194 12.127 251.187 10.0109 251.187 7.44147V4.96032H248.643C246.007 4.96032 243.84 3.00298 243.584 0.496032H243.585ZM238.983 24.8016V28.2748C238.983 30.4663 237.163 32.2421 234.916 32.2421C232.67 32.2421 230.848 30.4643 230.848 28.2748V24.8016H227.287C225.041 24.8016 223.221 23.0258 223.221 20.8333C223.221 18.6424 225.043 16.8651 227.287 16.8651H230.848V13.3919C230.848 11.2004 232.668 9.4246 234.916 9.4246C237.161 9.4246 238.983 11.2024 238.983 13.3919V16.8651H242.544C244.79 16.8651 246.61 18.6409 246.61 20.8333C246.61 23.0243 244.788 24.8016 242.544 24.8016H238.983Z" fill="#35506F" fill-opacity="0.15"/>
<path fill-rule="evenodd" clip-rule="evenodd" d="M256.78 136.409C254.534 136.409 252.712 134.631 252.712 132.441V128.968H249.152C246.905 128.968 245.085 127.192 245.085 125H225.763C225.763 127.191 223.94 128.968 221.696 128.968H218.136V132.441C218.136 134.633 216.315 136.409 214.068 136.409V155.258C216.314 155.258 218.136 157.036 218.136 159.225V162.698H221.696C223.942 162.698 225.763 164.474 225.763 166.667H245.085C245.085 164.476 246.907 162.698 249.152 162.698H252.712V159.225C252.712 157.034 254.532 155.258 256.78 155.258V136.409ZM244.093 166.171H235.932V158.209C238.502 157.961 240.509 155.846 240.509 153.275V150.794H243.052C245.686 150.794 247.855 148.836 248.111 146.329H256.271V154.291C253.701 154.539 251.695 156.654 251.695 159.225V161.706H249.152C246.518 161.706 244.349 163.664 244.092 166.171H244.093ZM226.754 166.171H234.915V158.209C232.346 157.96 230.339 155.844 230.339 153.275V150.794H227.796C225.16 150.794 222.992 148.836 222.736 146.329H214.576V154.291C217.146 154.54 219.153 156.656 219.153 159.225V161.706H221.696C224.332 161.706 226.5 163.664 226.755 166.171H226.754ZM226.754 125.496H234.915V133.457C232.345 133.705 230.339 135.82 230.339 138.392V140.873H227.796C225.162 140.873 222.993 142.831 222.736 145.337H214.576V137.376C217.146 137.128 219.153 135.013 219.153 132.441V129.96H221.696C224.33 129.96 226.499 128.002 226.755 125.496H226.754ZM244.093 125.496H235.932V133.457C238.502 133.706 240.509 135.822 240.509 138.392V140.873H243.052C245.688 140.873 247.855 142.83 248.111 145.337H256.271V137.376C253.702 137.127 251.695 135.011 251.695 132.441V129.96H249.152C246.516 129.96 244.348 128.003 244.092 125.496H244.093ZM239.492 149.802V153.275C239.492 155.466 237.671 157.242 235.424 157.242C233.178 157.242 231.356 155.464 231.356 153.275V149.802H227.796C225.549 149.802 223.729 148.026 223.729 145.833C223.729 143.642 225.551 141.865 227.796 141.865H231.356V138.392C231.356 136.2 233.176 134.425 235.424 134.425C237.67 134.425 239.492 136.202 239.492 138.392V141.865H243.052C245.298 141.865 247.119 143.641 247.119 145.833C247.119 148.024 245.296 149.802 243.052 149.802H239.492Z" fill="#35506F" fill-opacity="0.15"/>
<path fill-rule="evenodd" clip-rule="evenodd" d="M256.78 53.0754C254.534 53.0754 252.712 51.2976 252.712 49.1081V45.6349H249.152C246.905 45.6349 245.085 43.8591 245.085 41.6667H225.763C225.763 43.8576 223.94 45.6349 221.696 45.6349H218.136V49.1081C218.136 51.2996 216.315 53.0754 214.068 53.0754V71.9246C216.314 71.9246 218.136 73.7024 218.136 75.8919V79.3651H221.696C223.942 79.3651 225.763 81.1409 225.763 83.3333H245.085C245.085 81.1424 246.907 79.3651 249.152 79.3651H252.712V75.8919C252.712 73.7004 254.532 71.9246 256.78 71.9246V53.0754ZM244.093 82.8373H235.932V74.876C238.502 74.628 240.509 72.5129 240.509 69.9415V67.4603H243.052C245.686 67.4603 247.855 65.5025 248.111 62.996H256.271V70.9573C253.701 71.2053 251.695 73.3204 251.695 75.8919V78.373H249.152C246.518 78.373 244.349 80.3308 244.092 82.8373H244.093ZM226.754 82.8373H234.915V74.876C232.346 74.627 230.339 72.5109 230.339 69.9415V67.4603H227.796C225.16 67.4603 222.992 65.503 222.736 62.996H214.576V70.9573C217.146 71.2063 219.153 73.3224 219.153 75.8919V78.373H221.696C224.332 78.373 226.5 80.3304 226.755 82.8373H226.754ZM226.754 42.1627H234.915V50.124C232.345 50.372 230.339 52.4871 230.339 55.0585V57.5397H227.796C225.162 57.5397 222.993 59.4975 222.736 62.004H214.576V54.0426C217.146 53.7946 219.153 51.6796 219.153 49.1081V46.627H221.696C224.33 46.627 226.499 44.6691 226.755 42.1627H226.754ZM244.093 42.1627H235.932V50.124C238.502 50.373 240.509 52.4891 240.509 55.0585V57.5397H243.052C245.688 57.5397 247.855 59.497 248.111 62.004H256.271V54.0426C253.702 53.7936 251.695 51.6776 251.695 49.1081V46.627H249.152C246.516 46.627 244.348 44.6696 244.092 42.1627H244.093ZM239.492 66.4682V69.9415C239.492 72.1329 237.671 73.9087 235.424 73.9087C233.178 73.9087 231.356 72.1309 231.356 69.9415V66.4682H227.796C225.549 66.4682 223.729 64.6925 223.729 62.5C223.729 60.309 225.551 58.5317 227.796 58.5317H231.356V55.0585C231.356 52.8671 233.176 51.0913 235.424 51.0913C237.67 51.0913 239.492 52.869 239.492 55.0585V58.5317H243.052C245.298 58.5317 247.119 60.3075 247.119 62.5C247.119 64.691 245.296 66.4682 243.052 66.4682H239.492Z" fill="#35506F" fill-opacity="0.15"/>
<path fill-rule="evenodd" clip-rule="evenodd" d="M257.288 178.075C255.042 178.075 253.22 176.298 253.22 174.108V170.635H249.66C247.414 170.635 245.593 168.859 245.593 166.667H226.271C226.271 168.858 224.449 170.635 222.205 170.635H218.644V174.108C218.644 176.3 216.824 178.075 214.576 178.075V196.925C216.822 196.925 218.644 198.702 218.644 200.892V204.365H222.205C224.451 204.365 226.271 206.141 226.271 208.333H245.593C245.593 206.142 247.416 204.365 249.66 204.365H253.22V200.892C253.22 198.7 255.041 196.925 257.288 196.925V178.075ZM244.602 207.837H236.441V199.876C239.011 199.628 241.017 197.513 241.017 194.941V192.46H243.56C246.194 192.46 248.364 190.502 248.62 187.996H256.78V195.957C254.21 196.205 252.204 198.32 252.204 200.892V203.373H249.66C247.026 203.373 244.857 205.331 244.601 207.837H244.602ZM227.263 207.837H235.424V199.876C232.855 199.627 230.848 197.511 230.848 194.941V192.46H228.304C225.668 192.46 223.501 190.503 223.245 187.996H215.085V195.957C217.654 196.206 219.661 198.322 219.661 200.892V203.373H222.205C224.84 203.373 227.008 205.33 227.264 207.837H227.263ZM227.263 167.163H235.424V175.124C232.854 175.372 230.848 177.487 230.848 180.059V182.54H228.304C225.67 182.54 223.501 184.498 223.245 187.004H215.085V179.043C217.655 178.795 219.661 176.68 219.661 174.108V171.627H222.205C224.838 171.627 227.008 169.669 227.264 167.163H227.263ZM244.602 167.163H236.441V175.124C239.01 175.373 241.017 177.489 241.017 180.059V182.54H243.56C246.196 182.54 248.364 184.497 248.62 187.004H256.78V179.043C254.21 178.794 252.204 176.678 252.204 174.108V171.627H249.66C247.024 171.627 244.857 169.67 244.601 167.163H244.602ZM240 191.468V194.941C240 197.133 238.18 198.909 235.932 198.909C233.686 198.909 231.865 197.131 231.865 194.941V191.468H228.304C226.058 191.468 224.237 189.692 224.237 187.5C224.237 185.309 226.06 183.532 228.304 183.532H231.865V180.059C231.865 177.867 233.685 176.091 235.932 176.091C238.178 176.091 240 177.869 240 180.059V183.532H243.56C245.807 183.532 247.627 185.308 247.627 187.5C247.627 189.691 245.805 191.468 243.56 191.468H240Z" fill="#35506F" fill-opacity="0.15"/>
<path fill-rule="evenodd" clip-rule="evenodd" d="M256.78 94.742C254.534 94.742 252.712 92.9643 252.712 90.7748V87.3016H249.152C246.905 87.3016 245.085 85.5258 245.085 83.3333H225.763C225.763 85.5243 223.94 87.3016 221.696 87.3016H218.136V90.7748C218.136 92.9662 216.315 94.742 214.068 94.742V113.591C216.314 113.591 218.136 115.369 218.136 117.559V121.032H221.696C223.942 121.032 225.763 122.808 225.763 125H245.085C245.085 122.809 246.907 121.032 249.152 121.032H252.712V117.559C252.712 115.367 254.532 113.591 256.78 113.591V94.742ZM244.093 124.504H235.932V116.543C238.502 116.295 240.509 114.18 240.509 111.608V109.127H243.052C245.686 109.127 247.855 107.169 248.111 104.663H256.271V112.624C253.701 112.872 251.695 114.987 251.695 117.559V120.04H249.152C246.518 120.04 244.349 121.998 244.092 124.504H244.093ZM226.754 124.504H234.915V116.543C232.346 116.294 230.339 114.178 230.339 111.608V109.127H227.796C225.16 109.127 222.992 107.17 222.736 104.663H214.576V112.624C217.146 112.873 219.153 114.989 219.153 117.559V120.04H221.696C224.332 120.04 226.5 121.997 226.755 124.504H226.754ZM226.754 83.8293H234.915V91.7907C232.345 92.0387 230.339 94.1537 230.339 96.7252V99.2063H227.796C225.162 99.2063 222.993 101.164 222.736 103.671H214.576V95.7093C217.146 95.4613 219.153 93.3462 219.153 90.7748V88.2936H221.696C224.33 88.2936 226.499 86.3358 226.755 83.8293H226.754ZM244.093 83.8293H235.932V91.7907C238.502 92.0397 240.509 94.1557 240.509 96.7252V99.2063H243.052C245.688 99.2063 247.855 101.164 248.111 103.671H256.271V95.7093C253.702 95.4603 251.695 93.3442 251.695 90.7748V88.2936H249.152C246.516 88.2936 244.348 86.3363 244.092 83.8293H244.093ZM239.492 108.135V111.608C239.492 113.8 237.671 115.575 235.424 115.575C233.178 115.575 231.356 113.798 231.356 111.608V108.135H227.796C225.549 108.135 223.729 106.359 223.729 104.167C223.729 101.976 225.551 100.198 227.796 100.198H231.356V96.7252C231.356 94.5337 233.176 92.7579 235.424 92.7579C237.67 92.7579 239.492 94.5357 239.492 96.7252V100.198H243.052C245.298 100.198 247.119 101.974 247.119 104.167C247.119 106.358 245.296 108.135 243.052 108.135H239.492Z" fill="#35506F" fill-opacity="0.15"/>
<path fill-rule="evenodd" clip-rule="evenodd" d="M257.288 219.742C255.042 219.742 253.22 217.964 253.22 215.775V212.302H249.66C247.414 212.302 245.593 210.526 245.593 208.333H226.271C226.271 210.524 224.449 212.302 222.205 212.302H218.644V215.775C218.644 217.966 216.824 219.742 214.576 219.742V238.591C216.822 238.591 218.644 240.369 218.644 242.559V246.032H222.205C224.451 246.032 226.271 247.808 226.271 250H245.593C245.593 247.809 247.416 246.032 249.66 246.032H253.22V242.559C253.22 240.367 255.041 238.591 257.288 238.591V219.742ZM244.602 249.504H236.441V241.543C239.011 241.295 241.017 239.18 241.017 236.608V234.127H243.56C246.194 234.127 248.364 232.169 248.62 229.663H256.78V237.624C254.21 237.872 252.204 239.987 252.204 242.559V245.04H249.66C247.026 245.04 244.857 246.998 244.601 249.504H244.602ZM227.263 249.504H235.424V241.543C232.855 241.294 230.848 239.178 230.848 236.608V234.127H228.304C225.668 234.127 223.501 232.17 223.245 229.663H215.085V237.624C217.654 237.873 219.661 239.989 219.661 242.559V245.04H222.205C224.84 245.04 227.008 246.997 227.264 249.504H227.263ZM227.263 208.829H235.424V216.791C232.854 217.039 230.848 219.154 230.848 221.725V224.206H228.304C225.67 224.206 223.501 226.164 223.245 228.671H215.085V220.709C217.655 220.461 219.661 218.346 219.661 215.775V213.294H222.205C224.838 213.294 227.008 211.336 227.264 208.829H227.263ZM244.602 208.829H236.441V216.791C239.01 217.04 241.017 219.156 241.017 221.725V224.206H243.56C246.196 224.206 248.364 226.164 248.62 228.671H256.78V220.709C254.21 220.46 252.204 218.344 252.204 215.775V213.294H249.66C247.024 213.294 244.857 211.336 244.601 208.829H244.602ZM240 233.135V236.608C240 238.8 238.18 240.575 235.932 240.575C233.686 240.575 231.865 238.798 231.865 236.608V233.135H228.304C226.058 233.135 224.237 231.359 224.237 229.167C224.237 226.976 226.06 225.198 228.304 225.198H231.865V221.725C231.865 219.534 233.685 217.758 235.932 217.758C238.178 217.758 240 219.536 240 221.725V225.198H243.56C245.807 225.198 247.627 226.974 247.627 229.167C247.627 231.358 245.805 233.135 243.56 233.135H240Z" fill="#35506F" fill-opacity="0.15"/>
<path fill-rule="evenodd" clip-rule="evenodd" d="M298.983 11.4087C296.737 11.4087 294.915 9.63095 294.915 7.44147V3.96825H291.355C289.109 3.96825 287.288 2.19246 287.288 0H267.966C267.966 2.19097 266.144 3.96825 263.899 3.96825H260.339V7.44147C260.339 9.63294 258.519 11.4087 256.271 11.4087V30.2579C258.517 30.2579 260.339 32.0357 260.339 34.2252V37.6984H263.899C266.146 37.6984 267.966 39.4742 267.966 41.6667H287.288C287.288 39.4757 289.111 37.6984 291.355 37.6984H294.915V34.2252C294.915 32.0337 296.736 30.2579 298.983 30.2579V11.4087ZM286.297 41.1706H278.136V33.2093C280.705 32.9613 282.712 30.8462 282.712 28.2748V25.7937H285.255C287.889 25.7937 290.058 23.8358 290.315 21.3294H298.475V29.2907C295.905 29.5387 293.898 31.6538 293.898 34.2252V36.7064H291.355C288.721 36.7064 286.552 38.6642 286.296 41.1706H286.297ZM268.958 41.1706H277.119V33.2093C274.549 32.9603 272.542 30.8442 272.542 28.2748V25.7937H269.999C267.363 25.7937 265.195 23.8363 264.94 21.3294H256.78V29.2907C259.349 29.5397 261.356 31.6558 261.356 34.2252V36.7064H263.899C266.535 36.7064 268.703 38.6637 268.959 41.1706H268.958ZM268.958 0.496032H277.119V8.45734C274.549 8.70536 272.542 10.8204 272.542 13.3919V15.873H269.999C267.365 15.873 265.196 17.8309 264.94 20.3373H256.78V12.376C259.35 12.128 261.356 10.0129 261.356 7.44147V4.96032H263.899C266.533 4.96032 268.702 3.00248 268.959 0.496032H268.958ZM286.297 0.496032H278.136V8.45734C280.705 8.70635 282.712 10.8224 282.712 13.3919V15.873H285.255C287.891 15.873 290.059 17.8304 290.315 20.3373H298.475V12.376C295.905 12.127 293.898 10.0109 293.898 7.44147V4.96032H291.355C288.719 4.96032 286.551 3.00298 286.296 0.496032H286.297ZM281.695 24.8016V28.2748C281.695 30.4663 279.875 32.2421 277.627 32.2421C275.381 32.2421 273.559 30.4643 273.559 28.2748V24.8016H269.999C267.753 24.8016 265.932 23.0258 265.932 20.8333C265.932 18.6424 267.755 16.8651 269.999 16.8651H273.559V13.3919C273.559 11.2004 275.38 9.4246 277.627 9.4246C279.873 9.4246 281.695 11.2024 281.695 13.3919V16.8651H285.255C287.502 16.8651 289.322 18.6409 289.322 20.8333C289.322 23.0243 287.5 24.8016 285.255 24.8016H281.695Z" fill="#35506F" fill-opacity="0.15"/>
<path fill-rule="evenodd" clip-rule="evenodd" d="M299.491 136.409C297.245 136.409 295.424 134.631 295.424 132.441V128.968H291.863C289.617 128.968 287.797 127.192 287.797 125H268.474C268.474 127.191 266.652 128.968 264.408 128.968H260.847V132.441C260.847 134.633 259.027 136.409 256.78 136.409V155.258C259.026 155.258 260.847 157.036 260.847 159.225V162.698H264.408C266.654 162.698 268.474 164.474 268.474 166.667H287.797C287.797 164.476 289.619 162.698 291.863 162.698H295.424V159.225C295.424 157.034 297.244 155.258 299.491 155.258V136.409ZM286.805 166.171H278.644V158.209C281.214 157.961 283.22 155.846 283.22 153.275V150.794H285.764C288.398 150.794 290.567 148.836 290.823 146.329H298.983V154.291C296.413 154.539 294.407 156.654 294.407 159.225V161.706H291.863C289.229 161.706 287.06 163.664 286.804 166.171H286.805ZM269.466 166.171H277.627V158.209C275.058 157.96 273.051 155.844 273.051 153.275V150.794H270.507C267.871 150.794 265.704 148.836 265.448 146.329H257.288V154.291C259.857 154.54 261.864 156.656 261.864 159.225V161.706H264.408C267.044 161.706 269.211 163.664 269.467 166.171H269.466ZM269.466 125.496H277.627V133.457C275.057 133.705 273.051 135.82 273.051 138.392V140.873H270.507C267.873 140.873 265.704 142.831 265.448 145.337H257.288V137.376C259.858 137.128 261.864 135.013 261.864 132.441V129.96H264.408C267.042 129.96 269.211 128.002 269.467 125.496H269.466ZM286.805 125.496H278.644V133.457C281.213 133.706 283.22 135.822 283.22 138.392V140.873H285.764C288.4 140.873 290.567 142.83 290.823 145.337H298.983V137.376C296.414 137.127 294.407 135.011 294.407 132.441V129.96H291.863C289.227 129.96 287.06 128.003 286.804 125.496H286.805ZM282.203 149.802V153.275C282.203 155.466 280.383 157.242 278.135 157.242C275.89 157.242 274.068 155.464 274.068 153.275V149.802H270.507C268.261 149.802 266.441 148.026 266.441 145.833C266.441 143.642 268.263 141.865 270.507 141.865H274.068V138.392C274.068 136.2 275.888 134.425 278.135 134.425C280.381 134.425 282.203 136.202 282.203 138.392V141.865H285.764C288.01 141.865 289.83 143.641 289.83 145.833C289.83 148.024 288.008 149.802 285.764 149.802H282.203Z" fill="#35506F" fill-opacity="0.15"/>
<path fill-rule="evenodd" clip-rule="evenodd" d="M299.491 53.0754C297.245 53.0754 295.424 51.2976 295.424 49.1081V45.6349H291.863C289.617 45.6349 287.797 43.8591 287.797 41.6667H268.474C268.474 43.8576 266.652 45.6349 264.408 45.6349H260.847V49.1081C260.847 51.2996 259.027 53.0754 256.78 53.0754V71.9246C259.026 71.9246 260.847 73.7024 260.847 75.8919V79.3651H264.408C266.654 79.3651 268.474 81.1409 268.474 83.3333H287.797C287.797 81.1424 289.619 79.3651 291.863 79.3651H295.424V75.8919C295.424 73.7004 297.244 71.9246 299.491 71.9246V53.0754ZM286.805 82.8373H278.644V74.876C281.214 74.628 283.22 72.5129 283.22 69.9415V67.4603H285.764C288.398 67.4603 290.567 65.5025 290.823 62.996H298.983V70.9573C296.413 71.2053 294.407 73.3204 294.407 75.8919V78.373H291.863C289.229 78.373 287.06 80.3308 286.804 82.8373H286.805ZM269.466 82.8373H277.627V74.876C275.058 74.627 273.051 72.5109 273.051 69.9415V67.4603H270.507C267.871 67.4603 265.704 65.503 265.448 62.996H257.288V70.9573C259.857 71.2063 261.864 73.3224 261.864 75.8919V78.373H264.408C267.044 78.373 269.211 80.3304 269.467 82.8373H269.466ZM269.466 42.1627H277.627V50.124C275.057 50.372 273.051 52.4871 273.051 55.0585V57.5397H270.507C267.873 57.5397 265.704 59.4975 265.448 62.004H257.288V54.0426C259.858 53.7946 261.864 51.6796 261.864 49.1081V46.627H264.408C267.042 46.627 269.211 44.6691 269.467 42.1627H269.466ZM286.805 42.1627H278.644V50.124C281.213 50.373 283.22 52.4891 283.22 55.0585V57.5397H285.764C288.4 57.5397 290.567 59.497 290.823 62.004H298.983V54.0426C296.414 53.7936 294.407 51.6776 294.407 49.1081V46.627H291.863C289.227 46.627 287.06 44.6696 286.804 42.1627H286.805ZM282.203 66.4682V69.9415C282.203 72.1329 280.383 73.9087 278.135 73.9087C275.89 73.9087 274.068 72.1309 274.068 69.9415V66.4682H270.507C268.261 66.4682 266.441 64.6925 266.441 62.5C266.441 60.309 268.263 58.5317 270.507 58.5317H274.068V55.0585C274.068 52.8671 275.888 51.0913 278.135 51.0913C280.381 51.0913 282.203 52.869 282.203 55.0585V58.5317H285.764C288.01 58.5317 289.83 60.3075 289.83 62.5C289.83 64.691 288.008 66.4682 285.764 66.4682H282.203Z" fill="#35506F" fill-opacity="0.15"/>
<path fill-rule="evenodd" clip-rule="evenodd" d="M300 178.075C297.754 178.075 295.932 176.298 295.932 174.108V170.635H292.372C290.125 170.635 288.305 168.859 288.305 166.667H268.983C268.983 168.858 267.161 170.635 264.916 170.635H261.356V174.108C261.356 176.3 259.536 178.075 257.288 178.075V196.925C259.534 196.925 261.356 198.702 261.356 200.892V204.365H264.916C267.163 204.365 268.983 206.141 268.983 208.333H288.305C288.305 206.142 290.127 204.365 292.372 204.365H295.932V200.892C295.932 198.7 297.753 196.925 300 196.925V178.075ZM287.314 207.837H279.152V199.876C281.722 199.628 283.729 197.513 283.729 194.941V192.46H286.272C288.906 192.46 291.075 190.502 291.331 187.996H299.491V195.957C296.922 196.205 294.915 198.32 294.915 200.892V203.373H292.372C289.738 203.373 287.569 205.331 287.312 207.837H287.314ZM269.975 207.837H278.136V199.876C275.566 199.627 273.559 197.511 273.559 194.941V192.46H271.016C268.38 192.46 266.212 190.503 265.957 187.996H257.797V195.957C260.366 196.206 262.373 198.322 262.373 200.892V203.373H264.916C267.552 203.373 269.72 205.33 269.976 207.837H269.975ZM269.975 167.163H278.136V175.124C275.566 175.372 273.559 177.487 273.559 180.059V182.54H271.016C268.382 182.54 266.213 184.498 265.957 187.004H257.797V179.043C260.366 178.795 262.373 176.68 262.373 174.108V171.627H264.916C267.55 171.627 269.719 169.669 269.976 167.163H269.975ZM287.314 167.163H279.152V175.124C281.722 175.373 283.729 177.489 283.729 180.059V182.54H286.272C288.908 182.54 291.076 184.497 291.331 187.004H299.491V179.043C296.922 178.794 294.915 176.678 294.915 174.108V171.627H292.372C289.736 171.627 287.568 169.67 287.312 167.163H287.314ZM282.712 191.468V194.941C282.712 197.133 280.891 198.909 278.644 198.909C276.398 198.909 274.576 197.131 274.576 194.941V191.468H271.016C268.769 191.468 266.949 189.692 266.949 187.5C266.949 185.309 268.771 183.532 271.016 183.532H274.576V180.059C274.576 177.867 276.397 176.091 278.644 176.091C280.89 176.091 282.712 177.869 282.712 180.059V183.532H286.272C288.519 183.532 290.339 185.308 290.339 187.5C290.339 189.691 288.517 191.468 286.272 191.468H282.712Z" fill="#35506F" fill-opacity="0.15"/>
<path fill-rule="evenodd" clip-rule="evenodd" d="M299.491 94.742C297.245 94.742 295.424 92.9643 295.424 90.7748V87.3016H291.863C289.617 87.3016 287.797 85.5258 287.797 83.3333H268.474C268.474 85.5243 266.652 87.3016 264.408 87.3016H260.847V90.7748C260.847 92.9662 259.027 94.742 256.78 94.742V113.591C259.026 113.591 260.847 115.369 260.847 117.559V121.032H264.408C266.654 121.032 268.474 122.808 268.474 125H287.797C287.797 122.809 289.619 121.032 291.863 121.032H295.424V117.559C295.424 115.367 297.244 113.591 299.491 113.591V94.742ZM286.805 124.504H278.644V116.543C281.214 116.295 283.22 114.18 283.22 111.608V109.127H285.764C288.398 109.127 290.567 107.169 290.823 104.663H298.983V112.624C296.413 112.872 294.407 114.987 294.407 117.559V120.04H291.863C289.229 120.04 287.06 121.998 286.804 124.504H286.805ZM269.466 124.504H277.627V116.543C275.058 116.294 273.051 114.178 273.051 111.608V109.127H270.507C267.871 109.127 265.704 107.17 265.448 104.663H257.288V112.624C259.857 112.873 261.864 114.989 261.864 117.559V120.04H264.408C267.044 120.04 269.211 121.997 269.467 124.504H269.466ZM269.466 83.8293H277.627V91.7907C275.057 92.0387 273.051 94.1537 273.051 96.7252V99.2063H270.507C267.873 99.2063 265.704 101.164 265.448 103.671H257.288V95.7093C259.858 95.4613 261.864 93.3462 261.864 90.7748V88.2936H264.408C267.042 88.2936 269.211 86.3358 269.467 83.8293H269.466ZM286.805 83.8293H278.644V91.7907C281.213 92.0397 283.22 94.1557 283.22 96.7252V99.2063H285.764C288.4 99.2063 290.567 101.164 290.823 103.671H298.983V95.7093C296.414 95.4603 294.407 93.3442 294.407 90.7748V88.2936H291.863C289.227 88.2936 287.06 86.3363 286.804 83.8293H286.805ZM282.203 108.135V111.608C282.203 113.8 280.383 115.575 278.135 115.575C275.89 115.575 274.068 113.798 274.068 111.608V108.135H270.507C268.261 108.135 266.441 106.359 266.441 104.167C266.441 101.976 268.263 100.198 270.507 100.198H274.068V96.7252C274.068 94.5337 275.888 92.7579 278.135 92.7579C280.381 92.7579 282.203 94.5357 282.203 96.7252V100.198H285.764C288.01 100.198 289.83 101.974 289.83 104.167C289.83 106.358 288.008 108.135 285.764 108.135H282.203Z" fill="#35506F" fill-opacity="0.15"/>
<path fill-rule="evenodd" clip-rule="evenodd" d="M300 219.742C297.754 219.742 295.932 217.964 295.932 215.775V212.302H292.372C290.125 212.302 288.305 210.526 288.305 208.333H268.983C268.983 210.524 267.161 212.302 264.916 212.302H261.356V215.775C261.356 217.966 259.536 219.742 257.288 219.742V238.591C259.534 238.591 261.356 240.369 261.356 242.559V246.032H264.916C267.163 246.032 268.983 247.808 268.983 250H288.305C288.305 247.809 290.127 246.032 292.372 246.032H295.932V242.559C295.932 240.367 297.753 238.591 300 238.591V219.742ZM287.314 249.504H279.152V241.543C281.722 241.295 283.729 239.18 283.729 236.608V234.127H286.272C288.906 234.127 291.075 232.169 291.331 229.663H299.491V237.624C296.922 237.872 294.915 239.987 294.915 242.559V245.04H292.372C289.738 245.04 287.569 246.998 287.312 249.504H287.314ZM269.975 249.504H278.136V241.543C275.566 241.294 273.559 239.178 273.559 236.608V234.127H271.016C268.38 234.127 266.212 232.17 265.957 229.663H257.797V237.624C260.366 237.873 262.373 239.989 262.373 242.559V245.04H264.916C267.552 245.04 269.72 246.997 269.976 249.504H269.975ZM269.975 208.829H278.136V216.791C275.566 217.039 273.559 219.154 273.559 221.725V224.206H271.016C268.382 224.206 266.213 226.164 265.957 228.671H257.797V220.709C260.366 220.461 262.373 218.346 262.373 215.775V213.294H264.916C267.55 213.294 269.719 211.336 269.976 208.829H269.975ZM287.314 208.829H279.152V216.791C281.722 217.04 283.729 219.156 283.729 221.725V224.206H286.272C288.908 224.206 291.076 226.164 291.331 228.671H299.491V220.709C296.922 220.46 294.915 218.344 294.915 215.775V213.294H292.372C289.736 213.294 287.568 211.336 287.312 208.829H287.314ZM282.712 233.135V236.608C282.712 238.8 280.891 240.575 278.644 240.575C276.398 240.575 274.576 238.798 274.576 236.608V233.135H271.016C268.769 233.135 266.949 231.359 266.949 229.167C266.949 226.976 268.771 225.198 271.016 225.198H274.576V221.725C274.576 219.534 276.397 217.758 278.644 217.758C280.89 217.758 282.712 219.536 282.712 221.725V225.198H286.272C288.519 225.198 290.339 226.974 290.339 229.167C290.339 231.358 288.517 233.135 286.272 233.135H282.712Z" fill="#35506F" fill-opacity="0.15"/>
</svg>
